M48
METRIC,TZ
T01C0.5080
T02C0.3810
T03C1.0000
T04C1.0160
T05C0.7620
T06C0.6350
T07C3.0000
%
T01
X+64100Y+31300
X+39100Y+2000
X+39100Y+4500
X+39100Y+7000
X+43100Y+2000
X+43100Y+4500
X+43100Y+7000
X+47100Y+7000
X+47100Y+4500
X+47100Y+2000
X+50600Y+7000
T02
X+59200Y+19500
T03
X+54600Y+36500
X+52060Y+36500
X+49520Y+36500
X+46980Y+36500
X+44440Y+36500
X+41900Y+36500
X+39360Y+36500
X+36820Y+36500
X+34280Y+36500
X+31740Y+36500
X+29200Y+36500
X+26660Y+36500
X+24120Y+36500
X+21580Y+36500
X+19040Y+36500
X+16500Y+36500
X+13960Y+36500
X+11420Y+36500
X+8880Y+36500
X+6340Y+36500
X+54600Y+21500
X+52060Y+21500
X+49520Y+21500
X+46980Y+21500
X+44440Y+21500
X+41900Y+21500
X+39360Y+21500
X+36820Y+21500
X+34280Y+21500
X+31740Y+21500
X+29200Y+21500
X+26660Y+21500
X+24120Y+21500
X+21580Y+21500
X+19040Y+21500
X+16500Y+21500
X+13960Y+21500
X+11420Y+21500
X+8880Y+21500
X+6340Y+21500
X+41900Y+46000
X+39360Y+46000
X+36820Y+46000
X+34280Y+46000
X+31740Y+46000
X+29200Y+46000
X+26660Y+46000
X+24120Y+46000
X+55900Y+12200
X+53360Y+12200
X+50820Y+12200
X+48280Y+12200
X+45740Y+12200
X+43200Y+12200
X+40660Y+12200
X+38120Y+12200
X+47100Y+2000
X+47100Y+4500
X+47100Y+7000
X+43100Y+7000
X+43100Y+4500
X+43100Y+2000
X+39100Y+2000
X+39100Y+4500
X+39100Y+7000
X+50600Y+7000
T04
X+74940Y+4200
X+72400Y+4200
X+69860Y+4200
X+62140Y+4200
X+59600Y+4200
X+57060Y+4200
X+66050Y+23200
X+73550Y+23200
X+65950Y+40700
X+73450Y+40700
X+45530Y+46000
X+59500Y+46000
T05
X+63800Y+10400
X+73960Y+10400
X+73960Y+13500
X+63800Y+13500
X+12100Y+25000
X+22260Y+25000
X+78200Y+17600
X+78200Y+12520
X+79500Y+7700
X+74420Y+7700
X+59200Y+15500
X+59200Y+10420
X+81500Y+12300
X+81500Y+17380
X+66200Y+7700
X+71280Y+7700
X+53500Y+26000
X+58580Y+26000
X+7000Y+32000
X+12080Y+32000
X+25000Y+25000
X+27540Y+25000
X+27540Y+32620
X+25000Y+32620
X+41500Y+32800
X+31340Y+32800
X+31340Y+27300
X+41500Y+27300
X+31300Y+25000
X+41460Y+25000
X+49500Y+26000
X+44420Y+26000
X+41500Y+30100
X+36420Y+30100
X+34800Y+9520
X+34800Y+14600
X+36400Y+41000
X+41480Y+41000
X+16500Y+15000
X+16500Y+17540
X+8880Y+17540
X+8880Y+15000
X+18900Y+9000
X+18900Y+11540
X+11280Y+11540
X+11280Y+9000
X+21400Y+3000
X+21400Y+5540
X+13780Y+5540
X+13780Y+3000
X+29500Y+15000
X+19340Y+15000
X+31900Y+9000
X+21740Y+9000
X+34400Y+2200
X+24240Y+2200
X+39160Y+17300
X+29000Y+17300
X+53360Y+15300
X+43200Y+15300
X+53400Y+18300
X+43240Y+18300
X+44500Y+41000
X+49580Y+41000
T06
X+45530Y+31400
X+46800Y+30130
X+48070Y+31400
T07
X+4000Y+4000
X+4000Y+46000
X+86000Y+46000
X+86000Y+4000
M30
