G04 PROTEUS RS274X GERBER FILE*
%FSLAX45Y45*%
%MOMM*%
G01*
%ADD21C,0.203200*%
%ADD32C,0.240790*%
%ADD33C,0.228030*%
%ADD34C,0.106680*%
%ADD35C,0.164590*%
%ADD36C,0.050000*%
%ADD37C,0.551660*%
%ADD38C,0.332230*%
%ADD39C,0.296330*%
%ADD40C,0.187570*%
%ADD41C,0.121920*%
%TD.AperFunction*%
D21*
X+0Y+0D02*
X+9000000Y+0D01*
X+9000000Y+5000000D01*
X+0Y+5000000D01*
X+0Y+0D01*
X+3036840Y+3449340D02*
X+5597160Y+3449340D01*
X+5597160Y+3850660D01*
X+3036840Y+3850660D01*
X+3036840Y+3449340D01*
D32*
X+4028051Y+3625920D02*
X+4028051Y+3601841D01*
X+4052130Y+3577762D01*
X+4148446Y+3577762D01*
X+4172525Y+3601841D01*
X+4172525Y+3722237D01*
X+4268842Y+3674079D02*
X+4317000Y+3722237D01*
X+4317000Y+3577762D01*
X+4557791Y+3577762D02*
X+4413317Y+3577762D01*
X+4413317Y+3722237D01*
X+4557791Y+3722237D01*
X+4413317Y+3650000D02*
X+4509633Y+3650000D01*
D21*
X+496840Y+3449340D02*
X+3057160Y+3449340D01*
X+3057160Y+3850660D01*
X+496840Y+3850660D01*
X+496840Y+3449340D01*
D32*
X+1488051Y+3625920D02*
X+1488051Y+3601841D01*
X+1512130Y+3577762D01*
X+1608446Y+3577762D01*
X+1632525Y+3601841D01*
X+1632525Y+3722237D01*
X+1704763Y+3698158D02*
X+1728842Y+3722237D01*
X+1801079Y+3722237D01*
X+1825158Y+3698158D01*
X+1825158Y+3674079D01*
X+1801079Y+3650000D01*
X+1728842Y+3650000D01*
X+1704763Y+3625920D01*
X+1704763Y+3577762D01*
X+1825158Y+3577762D01*
X+2017791Y+3577762D02*
X+1873317Y+3577762D01*
X+1873317Y+3722237D01*
X+2017791Y+3722237D01*
X+1873317Y+3650000D02*
X+1969633Y+3650000D01*
D21*
X+3036840Y+1949340D02*
X+5597160Y+1949340D01*
X+5597160Y+2350660D01*
X+3036840Y+2350660D01*
X+3036840Y+1949340D01*
D32*
X+4028051Y+2125920D02*
X+4028051Y+2101841D01*
X+4052130Y+2077762D01*
X+4148446Y+2077762D01*
X+4172525Y+2101841D01*
X+4172525Y+2222237D01*
X+4268842Y+2174079D02*
X+4317000Y+2222237D01*
X+4317000Y+2077762D01*
X+4413317Y+2077762D02*
X+4413317Y+2222237D01*
X+4509633Y+2222237D01*
X+4557791Y+2174079D01*
X+4557791Y+2125920D01*
X+4509633Y+2077762D01*
X+4413317Y+2077762D01*
D21*
X+496840Y+1949340D02*
X+3057160Y+1949340D01*
X+3057160Y+2350660D01*
X+496840Y+2350660D01*
X+496840Y+1949340D01*
D32*
X+1488051Y+2125920D02*
X+1488051Y+2101841D01*
X+1512130Y+2077762D01*
X+1608446Y+2077762D01*
X+1632525Y+2101841D01*
X+1632525Y+2222237D01*
X+1704763Y+2198158D02*
X+1728842Y+2222237D01*
X+1801079Y+2222237D01*
X+1825158Y+2198158D01*
X+1825158Y+2174079D01*
X+1801079Y+2150000D01*
X+1728842Y+2150000D01*
X+1704763Y+2125920D01*
X+1704763Y+2077762D01*
X+1825158Y+2077762D01*
X+1873317Y+2077762D02*
X+1873317Y+2222237D01*
X+1969633Y+2222237D01*
X+2017791Y+2174079D01*
X+2017791Y+2125920D01*
X+1969633Y+2077762D01*
X+1873317Y+2077762D01*
D21*
X+2274840Y+4399340D02*
X+4327160Y+4399340D01*
X+4327160Y+4800660D01*
X+2274840Y+4800660D01*
X+2274840Y+4399340D01*
D33*
X+2571288Y+4577197D02*
X+2571288Y+4554393D01*
X+2594091Y+4531590D01*
X+2685305Y+4531590D01*
X+2708109Y+4554393D01*
X+2708109Y+4668411D01*
X+2753716Y+4531590D02*
X+2753716Y+4668411D01*
X+2844930Y+4668411D01*
X+2890537Y+4622804D01*
X+2890537Y+4577197D01*
X+2844930Y+4531590D01*
X+2753716Y+4531590D01*
X+3072965Y+4668411D02*
X+2936144Y+4531590D01*
X+2936144Y+4668411D02*
X+3004554Y+4600000D01*
X+3118572Y+4554393D02*
X+3141375Y+4531590D01*
X+3232589Y+4531590D01*
X+3255393Y+4554393D01*
X+3255393Y+4577197D01*
X+3232589Y+4600000D01*
X+3141375Y+4600000D01*
X+3118572Y+4622804D01*
X+3118572Y+4645607D01*
X+3141375Y+4668411D01*
X+3232589Y+4668411D01*
X+3255393Y+4645607D01*
X+3301000Y+4531590D02*
X+3301000Y+4668411D01*
X+3415017Y+4668411D01*
X+3437821Y+4645607D01*
X+3437821Y+4622804D01*
X+3415017Y+4600000D01*
X+3301000Y+4600000D01*
X+3483428Y+4668411D02*
X+3483428Y+4531590D01*
X+3620249Y+4531590D01*
X+3665856Y+4531590D02*
X+3665856Y+4622804D01*
X+3711463Y+4668411D01*
X+3757070Y+4668411D01*
X+3802677Y+4622804D01*
X+3802677Y+4531590D01*
X+3665856Y+4577197D02*
X+3802677Y+4577197D01*
X+3985105Y+4668411D02*
X+3848284Y+4531590D01*
X+3848284Y+4668411D02*
X+3916694Y+4600000D01*
D21*
X+3674840Y+1019340D02*
X+5727160Y+1019340D01*
X+5727160Y+1420660D01*
X+3674840Y+1420660D01*
X+3674840Y+1019340D01*
D32*
X+4026785Y+1195920D02*
X+4026785Y+1171841D01*
X+4050864Y+1147762D01*
X+4147180Y+1147762D01*
X+4171259Y+1171841D01*
X+4171259Y+1292237D01*
X+4219418Y+1171841D02*
X+4243497Y+1147762D01*
X+4339813Y+1147762D01*
X+4363892Y+1171841D01*
X+4363892Y+1195920D01*
X+4339813Y+1220000D01*
X+4243497Y+1220000D01*
X+4219418Y+1244079D01*
X+4219418Y+1268158D01*
X+4243497Y+1292237D01*
X+4339813Y+1292237D01*
X+4363892Y+1268158D01*
X+4556525Y+1147762D02*
X+4412051Y+1147762D01*
X+4412051Y+1292237D01*
X+4556525Y+1292237D01*
X+4412051Y+1220000D02*
X+4508367Y+1220000D01*
X+4604684Y+1147762D02*
X+4604684Y+1292237D01*
X+4749158Y+1147762D01*
X+4749158Y+1292237D01*
X+4797317Y+1171841D02*
X+4821396Y+1147762D01*
X+4917712Y+1147762D01*
X+4941791Y+1171841D01*
X+4941791Y+1195920D01*
X+4917712Y+1220000D01*
X+4821396Y+1220000D01*
X+4797317Y+1244079D01*
X+4797317Y+1268158D01*
X+4821396Y+1292237D01*
X+4917712Y+1292237D01*
X+4941791Y+1268158D01*
X+4989950Y+1244079D02*
X+5038108Y+1292237D01*
X+5086266Y+1292237D01*
X+5134424Y+1244079D01*
X+5134424Y+1195920D01*
X+5086266Y+1147762D01*
X+5038108Y+1147762D01*
X+4989950Y+1195920D01*
X+4989950Y+1244079D01*
X+5182583Y+1147762D02*
X+5182583Y+1292237D01*
X+5302978Y+1292237D01*
X+5327057Y+1268158D01*
X+5327057Y+1244079D01*
X+5302978Y+1220000D01*
X+5182583Y+1220000D01*
X+5302978Y+1220000D02*
X+5327057Y+1195920D01*
X+5327057Y+1147762D01*
D21*
X+6848840Y+155840D02*
X+7631160Y+155840D01*
X+7631160Y+557160D01*
X+6848840Y+557160D01*
X+6848840Y+155840D01*
D32*
X+7047367Y+428737D02*
X+7047367Y+308341D01*
X+7071446Y+284262D01*
X+7167762Y+284262D01*
X+7191841Y+308341D01*
X+7191841Y+428737D01*
X+7288158Y+380579D02*
X+7336316Y+428737D01*
X+7336316Y+284262D01*
D21*
X+5568840Y+155840D02*
X+6351160Y+155840D01*
X+6351160Y+557160D01*
X+5568840Y+557160D01*
X+5568840Y+155840D01*
D32*
X+5767367Y+428737D02*
X+5767367Y+308341D01*
X+5791446Y+284262D01*
X+5887762Y+284262D01*
X+5911841Y+308341D01*
X+5911841Y+428737D01*
X+5984079Y+404658D02*
X+6008158Y+428737D01*
X+6080395Y+428737D01*
X+6104474Y+404658D01*
X+6104474Y+380579D01*
X+6080395Y+356500D01*
X+6008158Y+356500D01*
X+5984079Y+332420D01*
X+5984079Y+284262D01*
X+6104474Y+284262D01*
D21*
X+6291100Y+951100D02*
X+7484900Y+951100D01*
X+7484900Y+1128900D01*
X+6291100Y+1128900D01*
X+6291100Y+951100D01*
D34*
X+6802656Y+1007996D02*
X+6802656Y+1072004D01*
X+6855996Y+1072004D01*
X+6866664Y+1061336D01*
X+6866664Y+1050668D01*
X+6855996Y+1040000D01*
X+6802656Y+1040000D01*
X+6855996Y+1040000D02*
X+6866664Y+1029332D01*
X+6866664Y+1007996D01*
X+6898668Y+1061336D02*
X+6909336Y+1072004D01*
X+6941340Y+1072004D01*
X+6952008Y+1061336D01*
X+6952008Y+1050668D01*
X+6941340Y+1040000D01*
X+6909336Y+1040000D01*
X+6898668Y+1029332D01*
X+6898668Y+1007996D01*
X+6952008Y+1007996D01*
D21*
X+6291100Y+1261100D02*
X+7484900Y+1261100D01*
X+7484900Y+1438900D01*
X+6291100Y+1438900D01*
X+6291100Y+1261100D01*
D34*
X+6802656Y+1317996D02*
X+6802656Y+1382004D01*
X+6855996Y+1382004D01*
X+6866664Y+1371336D01*
X+6866664Y+1360668D01*
X+6855996Y+1350000D01*
X+6802656Y+1350000D01*
X+6855996Y+1350000D02*
X+6866664Y+1339332D01*
X+6866664Y+1317996D01*
X+6909336Y+1360668D02*
X+6930672Y+1382004D01*
X+6930672Y+1317996D01*
D21*
X+1121100Y+2411100D02*
X+2314900Y+2411100D01*
X+2314900Y+2588900D01*
X+1121100Y+2588900D01*
X+1121100Y+2411100D01*
D34*
X+1632656Y+2467996D02*
X+1632656Y+2532004D01*
X+1685996Y+2532004D01*
X+1696664Y+2521336D01*
X+1696664Y+2510668D01*
X+1685996Y+2500000D01*
X+1632656Y+2500000D01*
X+1685996Y+2500000D02*
X+1696664Y+2489332D01*
X+1696664Y+2467996D01*
X+1782008Y+2521336D02*
X+1771340Y+2532004D01*
X+1739336Y+2532004D01*
X+1728668Y+2521336D01*
X+1728668Y+2478664D01*
X+1739336Y+2467996D01*
X+1771340Y+2467996D01*
X+1782008Y+2478664D01*
X+1782008Y+2489332D01*
X+1771340Y+2500000D01*
X+1728668Y+2500000D01*
D21*
X+7682840Y+1114840D02*
X+7957160Y+1114840D01*
X+7957160Y+1897160D01*
X+7682840Y+1897160D01*
X+7682840Y+1114840D01*
D35*
X+7852919Y+1473081D02*
X+7869378Y+1456622D01*
X+7869378Y+1407245D01*
X+7836460Y+1374327D01*
X+7803541Y+1374327D01*
X+7770623Y+1407245D01*
X+7770623Y+1456622D01*
X+7787082Y+1473081D01*
X+7803541Y+1538918D02*
X+7770623Y+1571836D01*
X+7869378Y+1571836D01*
D21*
X+7304840Y+632840D02*
X+8087160Y+632840D01*
X+8087160Y+907160D01*
X+7304840Y+907160D01*
X+7304840Y+632840D01*
D35*
X+7663081Y+737081D02*
X+7646622Y+720622D01*
X+7597245Y+720622D01*
X+7564327Y+753540D01*
X+7564327Y+786459D01*
X+7597245Y+819377D01*
X+7646622Y+819377D01*
X+7663081Y+802918D01*
X+7712459Y+802918D02*
X+7728918Y+819377D01*
X+7778295Y+819377D01*
X+7794754Y+802918D01*
X+7794754Y+786459D01*
X+7778295Y+770000D01*
X+7794754Y+753540D01*
X+7794754Y+737081D01*
X+7778295Y+720622D01*
X+7728918Y+720622D01*
X+7712459Y+737081D01*
X+7745377Y+770000D02*
X+7778295Y+770000D01*
D21*
X+5782840Y+904840D02*
X+6057160Y+904840D01*
X+6057160Y+1687160D01*
X+5782840Y+1687160D01*
X+5782840Y+904840D01*
D35*
X+5952919Y+1263081D02*
X+5969378Y+1246622D01*
X+5969378Y+1197245D01*
X+5936460Y+1164327D01*
X+5903541Y+1164327D01*
X+5870623Y+1197245D01*
X+5870623Y+1246622D01*
X+5887082Y+1263081D01*
X+5936460Y+1394754D02*
X+5936460Y+1296000D01*
X+5870623Y+1361836D01*
X+5969378Y+1361836D01*
D36*
X+7005000Y+2320000D02*
X+7004914Y+2322076D01*
X+7004212Y+2326229D01*
X+7002742Y+2330382D01*
X+7000340Y+2334535D01*
X+6996667Y+2338634D01*
X+6992514Y+2341643D01*
X+6988361Y+2343560D01*
X+6984208Y+2344643D01*
X+6980055Y+2345000D01*
X+6980000Y+2345000D01*
X+6955000Y+2320000D02*
X+6955086Y+2322076D01*
X+6955788Y+2326229D01*
X+6957258Y+2330382D01*
X+6959660Y+2334535D01*
X+6963333Y+2338634D01*
X+6967486Y+2341643D01*
X+6971639Y+2343560D01*
X+6975792Y+2344643D01*
X+6979945Y+2345000D01*
X+6980000Y+2345000D01*
X+6955000Y+2320000D02*
X+6955086Y+2317924D01*
X+6955788Y+2313771D01*
X+6957258Y+2309618D01*
X+6959660Y+2305465D01*
X+6963333Y+2301366D01*
X+6967486Y+2298357D01*
X+6971639Y+2296440D01*
X+6975792Y+2295357D01*
X+6979945Y+2295000D01*
X+6980000Y+2295000D01*
X+7005000Y+2320000D02*
X+7004914Y+2317924D01*
X+7004212Y+2313771D01*
X+7002742Y+2309618D01*
X+7000340Y+2305465D01*
X+6996667Y+2301366D01*
X+6992514Y+2298357D01*
X+6988361Y+2296440D01*
X+6984208Y+2295357D01*
X+6980055Y+2295000D01*
X+6980000Y+2295000D01*
X+7015000Y+2320000D02*
X+6945000Y+2320000D01*
X+6980000Y+2355000D02*
X+6980000Y+2285000D01*
X+6155000Y+3145000D02*
X+6155000Y+2320000D01*
X+6159167Y+2234260D01*
X+6171415Y+2151314D01*
X+6191368Y+2071541D01*
X+6218648Y+1995318D01*
X+6252876Y+1923022D01*
X+6293675Y+1855031D01*
X+6340668Y+1791724D01*
X+6393477Y+1733477D01*
X+6451724Y+1680668D01*
X+6515032Y+1633675D01*
X+6583022Y+1592876D01*
X+6655318Y+1558648D01*
X+6731541Y+1531368D01*
X+6811314Y+1511415D01*
X+6894260Y+1499167D01*
X+6980000Y+1495000D01*
X+7065740Y+1499167D01*
X+7148686Y+1511415D01*
X+7228459Y+1531368D01*
X+7304682Y+1558648D01*
X+7376978Y+1592876D01*
X+7444968Y+1633675D01*
X+7508276Y+1680668D01*
X+7566523Y+1733477D01*
X+7619332Y+1791724D01*
X+7666325Y+1855031D01*
X+7707124Y+1923022D01*
X+7741352Y+1995318D01*
X+7768632Y+2071541D01*
X+7788585Y+2151314D01*
X+7800833Y+2234260D01*
X+7805000Y+2320000D01*
X+7800833Y+2405740D01*
X+7788585Y+2488686D01*
X+7768632Y+2568459D01*
X+7741352Y+2644682D01*
X+7707124Y+2716978D01*
X+7666325Y+2784969D01*
X+7619332Y+2848276D01*
X+7566523Y+2906523D01*
X+7508276Y+2959332D01*
X+7444968Y+3006325D01*
X+7376978Y+3047124D01*
X+7304682Y+3081352D01*
X+7228459Y+3108632D01*
X+7148686Y+3128585D01*
X+7065740Y+3140833D01*
X+6980000Y+3145000D01*
X+6155000Y+3145000D01*
D37*
X+6869667Y+2209666D02*
X+6814500Y+2154500D01*
X+6649001Y+2154500D01*
X+6538668Y+2264833D01*
X+6538668Y+2375166D01*
X+6649001Y+2485499D01*
X+6814500Y+2485499D01*
X+6869667Y+2430333D01*
X+7310999Y+2485499D02*
X+7035166Y+2485499D01*
X+7035166Y+2375166D01*
X+7255832Y+2375166D01*
X+7310999Y+2320000D01*
X+7310999Y+2209666D01*
X+7255832Y+2154500D01*
X+7090333Y+2154500D01*
X+7035166Y+2209666D01*
D36*
X+6995000Y+4070000D02*
X+6994914Y+4072076D01*
X+6994212Y+4076229D01*
X+6992742Y+4080382D01*
X+6990340Y+4084535D01*
X+6986667Y+4088634D01*
X+6982514Y+4091643D01*
X+6978361Y+4093560D01*
X+6974208Y+4094643D01*
X+6970055Y+4095000D01*
X+6970000Y+4095000D01*
X+6945000Y+4070000D02*
X+6945086Y+4072076D01*
X+6945788Y+4076229D01*
X+6947258Y+4080382D01*
X+6949660Y+4084535D01*
X+6953333Y+4088634D01*
X+6957486Y+4091643D01*
X+6961639Y+4093560D01*
X+6965792Y+4094643D01*
X+6969945Y+4095000D01*
X+6970000Y+4095000D01*
X+6945000Y+4070000D02*
X+6945086Y+4067924D01*
X+6945788Y+4063771D01*
X+6947258Y+4059618D01*
X+6949660Y+4055465D01*
X+6953333Y+4051366D01*
X+6957486Y+4048357D01*
X+6961639Y+4046440D01*
X+6965792Y+4045357D01*
X+6969945Y+4045000D01*
X+6970000Y+4045000D01*
X+6995000Y+4070000D02*
X+6994914Y+4067924D01*
X+6994212Y+4063771D01*
X+6992742Y+4059618D01*
X+6990340Y+4055465D01*
X+6986667Y+4051366D01*
X+6982514Y+4048357D01*
X+6978361Y+4046440D01*
X+6974208Y+4045357D01*
X+6970055Y+4045000D01*
X+6970000Y+4045000D01*
X+7005000Y+4070000D02*
X+6935000Y+4070000D01*
X+6970000Y+4105000D02*
X+6970000Y+4035000D01*
X+6145000Y+4895000D02*
X+6145000Y+4070000D01*
X+6149167Y+3984260D01*
X+6161415Y+3901314D01*
X+6181368Y+3821541D01*
X+6208648Y+3745318D01*
X+6242876Y+3673022D01*
X+6283675Y+3605031D01*
X+6330668Y+3541724D01*
X+6383477Y+3483477D01*
X+6441724Y+3430668D01*
X+6505032Y+3383675D01*
X+6573022Y+3342876D01*
X+6645318Y+3308648D01*
X+6721541Y+3281368D01*
X+6801314Y+3261415D01*
X+6884260Y+3249167D01*
X+6970000Y+3245000D01*
X+7055740Y+3249167D01*
X+7138686Y+3261415D01*
X+7218459Y+3281368D01*
X+7294682Y+3308648D01*
X+7366978Y+3342876D01*
X+7434968Y+3383675D01*
X+7498276Y+3430668D01*
X+7556523Y+3483477D01*
X+7609332Y+3541724D01*
X+7656325Y+3605031D01*
X+7697124Y+3673022D01*
X+7731352Y+3745318D01*
X+7758632Y+3821541D01*
X+7778585Y+3901314D01*
X+7790833Y+3984260D01*
X+7795000Y+4070000D01*
X+7790833Y+4155740D01*
X+7778585Y+4238686D01*
X+7758632Y+4318459D01*
X+7731352Y+4394682D01*
X+7697124Y+4466978D01*
X+7656325Y+4534969D01*
X+7609332Y+4598276D01*
X+7556523Y+4656523D01*
X+7498276Y+4709332D01*
X+7434968Y+4756325D01*
X+7366978Y+4797124D01*
X+7294682Y+4831352D01*
X+7218459Y+4858632D01*
X+7138686Y+4878585D01*
X+7055740Y+4890833D01*
X+6970000Y+4895000D01*
X+6145000Y+4895000D01*
D37*
X+6859667Y+3959666D02*
X+6804500Y+3904500D01*
X+6639001Y+3904500D01*
X+6528668Y+4014833D01*
X+6528668Y+4125166D01*
X+6639001Y+4235499D01*
X+6804500Y+4235499D01*
X+6859667Y+4180333D01*
X+7025166Y+4180333D02*
X+7080333Y+4235499D01*
X+7245832Y+4235499D01*
X+7300999Y+4180333D01*
X+7300999Y+4125166D01*
X+7245832Y+4070000D01*
X+7080333Y+4070000D01*
X+7025166Y+4014833D01*
X+7025166Y+3904500D01*
X+7300999Y+3904500D01*
D21*
X+4438700Y+4323140D02*
X+6064300Y+4323140D01*
X+6064300Y+4876860D01*
X+4438700Y+4876860D01*
X+4438700Y+4323140D01*
D38*
X+4985715Y+4500330D02*
X+4985715Y+4699669D01*
X+5118607Y+4699669D01*
X+5185053Y+4633223D01*
X+5185053Y+4566776D01*
X+5118607Y+4500330D01*
X+4985715Y+4500330D01*
X+5450838Y+4699669D02*
X+5284723Y+4699669D01*
X+5284723Y+4633223D01*
X+5417615Y+4633223D01*
X+5450838Y+4600000D01*
X+5450838Y+4533553D01*
X+5417615Y+4500330D01*
X+5317946Y+4500330D01*
X+5284723Y+4533553D01*
D21*
X+8012840Y+1092840D02*
X+8287160Y+1092840D01*
X+8287160Y+1875160D01*
X+8012840Y+1875160D01*
X+8012840Y+1092840D01*
D35*
X+8182919Y+1451081D02*
X+8199378Y+1434622D01*
X+8199378Y+1385245D01*
X+8166460Y+1352327D01*
X+8133541Y+1352327D01*
X+8100623Y+1385245D01*
X+8100623Y+1434622D01*
X+8117082Y+1451081D01*
X+8133541Y+1582754D02*
X+8150000Y+1566295D01*
X+8150000Y+1516918D01*
X+8133541Y+1500459D01*
X+8117082Y+1500459D01*
X+8100623Y+1516918D01*
X+8100623Y+1566295D01*
X+8117082Y+1582754D01*
X+8182919Y+1582754D01*
X+8199378Y+1566295D01*
X+8199378Y+1516918D01*
D21*
X+6482840Y+632840D02*
X+7265160Y+632840D01*
X+7265160Y+907160D01*
X+6482840Y+907160D01*
X+6482840Y+632840D01*
D35*
X+6841081Y+737081D02*
X+6824622Y+720622D01*
X+6775245Y+720622D01*
X+6742327Y+753540D01*
X+6742327Y+786459D01*
X+6775245Y+819377D01*
X+6824622Y+819377D01*
X+6841081Y+802918D01*
X+6906918Y+770000D02*
X+6890459Y+786459D01*
X+6890459Y+802918D01*
X+6906918Y+819377D01*
X+6956295Y+819377D01*
X+6972754Y+802918D01*
X+6972754Y+786459D01*
X+6956295Y+770000D01*
X+6906918Y+770000D01*
X+6890459Y+753540D01*
X+6890459Y+737081D01*
X+6906918Y+720622D01*
X+6956295Y+720622D01*
X+6972754Y+737081D01*
X+6972754Y+753540D01*
X+6956295Y+770000D01*
D21*
X+5212840Y+2462840D02*
X+5995160Y+2462840D01*
X+5995160Y+2737160D01*
X+5212840Y+2737160D01*
X+5212840Y+2462840D01*
D35*
X+5571081Y+2567081D02*
X+5554622Y+2550622D01*
X+5505245Y+2550622D01*
X+5472327Y+2583540D01*
X+5472327Y+2616459D01*
X+5505245Y+2649377D01*
X+5554622Y+2649377D01*
X+5571081Y+2632918D01*
X+5702754Y+2632918D02*
X+5686295Y+2649377D01*
X+5636918Y+2649377D01*
X+5620459Y+2632918D01*
X+5620459Y+2567081D01*
X+5636918Y+2550622D01*
X+5686295Y+2550622D01*
X+5702754Y+2567081D01*
X+5702754Y+2583540D01*
X+5686295Y+2600000D01*
X+5620459Y+2600000D01*
D21*
X+562840Y+3062840D02*
X+1345160Y+3062840D01*
X+1345160Y+3337160D01*
X+562840Y+3337160D01*
X+562840Y+3062840D01*
D35*
X+855245Y+3167081D02*
X+838786Y+3150622D01*
X+789409Y+3150622D01*
X+756491Y+3183540D01*
X+756491Y+3216459D01*
X+789409Y+3249377D01*
X+838786Y+3249377D01*
X+855245Y+3232918D01*
X+921082Y+3216459D02*
X+954000Y+3249377D01*
X+954000Y+3150622D01*
X+1118591Y+3183540D02*
X+1019837Y+3183540D01*
X+1085673Y+3249377D01*
X+1085673Y+3150622D01*
D21*
X+2362840Y+2436500D02*
X+2891160Y+2436500D01*
X+2891160Y+3325500D01*
X+2362840Y+3325500D01*
X+2362840Y+2436500D01*
D39*
X+2538100Y+2643934D02*
X+2686267Y+2643934D01*
X+2715900Y+2673567D01*
X+2715900Y+2792100D01*
X+2686267Y+2821733D01*
X+2538100Y+2821733D01*
X+2567733Y+3058799D02*
X+2538100Y+3029166D01*
X+2538100Y+2940266D01*
X+2567733Y+2910633D01*
X+2686267Y+2910633D01*
X+2715900Y+2940266D01*
X+2715900Y+3029166D01*
X+2686267Y+3058799D01*
X+2656633Y+3058799D01*
X+2627000Y+3029166D01*
X+2627000Y+2910633D01*
D21*
X+3045100Y+3191100D02*
X+4238900Y+3191100D01*
X+4238900Y+3368900D01*
X+3045100Y+3368900D01*
X+3045100Y+3191100D01*
D34*
X+3556656Y+3247996D02*
X+3556656Y+3312004D01*
X+3609996Y+3312004D01*
X+3620664Y+3301336D01*
X+3620664Y+3290668D01*
X+3609996Y+3280000D01*
X+3556656Y+3280000D01*
X+3609996Y+3280000D02*
X+3620664Y+3269332D01*
X+3620664Y+3247996D01*
X+3652668Y+3312004D02*
X+3706008Y+3312004D01*
X+3706008Y+3301336D01*
X+3652668Y+3247996D01*
D21*
X+3045100Y+2641100D02*
X+4238900Y+2641100D01*
X+4238900Y+2818900D01*
X+3045100Y+2818900D01*
X+3045100Y+2641100D01*
D34*
X+3556656Y+2697996D02*
X+3556656Y+2762004D01*
X+3609996Y+2762004D01*
X+3620664Y+2751336D01*
X+3620664Y+2740668D01*
X+3609996Y+2730000D01*
X+3556656Y+2730000D01*
X+3609996Y+2730000D02*
X+3620664Y+2719332D01*
X+3620664Y+2697996D01*
X+3663336Y+2730000D02*
X+3652668Y+2740668D01*
X+3652668Y+2751336D01*
X+3663336Y+2762004D01*
X+3695340Y+2762004D01*
X+3706008Y+2751336D01*
X+3706008Y+2740668D01*
X+3695340Y+2730000D01*
X+3663336Y+2730000D01*
X+3652668Y+2719332D01*
X+3652668Y+2708664D01*
X+3663336Y+2697996D01*
X+3695340Y+2697996D01*
X+3706008Y+2708664D01*
X+3706008Y+2719332D01*
X+3695340Y+2730000D01*
D21*
X+4415840Y+2841440D02*
X+4944160Y+2841440D01*
X+4944160Y+3404160D01*
X+4415840Y+3404160D01*
X+4415840Y+2841440D01*
D40*
X+4661243Y+2972742D02*
X+4623728Y+3010256D01*
X+4623728Y+3047771D01*
X+4661243Y+3085285D01*
X+4698757Y+3085285D01*
X+4736272Y+3047771D01*
X+4736272Y+3010256D01*
X+4698757Y+2972742D01*
X+4661243Y+2972742D01*
X+4698757Y+3047771D02*
X+4736272Y+3085285D01*
X+4661243Y+3160314D02*
X+4623728Y+3197829D01*
X+4736272Y+3197829D01*
D21*
X+3041100Y+2411100D02*
X+4234900Y+2411100D01*
X+4234900Y+2588900D01*
X+3041100Y+2588900D01*
X+3041100Y+2411100D01*
D34*
X+3552656Y+2467996D02*
X+3552656Y+2532004D01*
X+3605996Y+2532004D01*
X+3616664Y+2521336D01*
X+3616664Y+2510668D01*
X+3605996Y+2500000D01*
X+3552656Y+2500000D01*
X+3605996Y+2500000D02*
X+3616664Y+2489332D01*
X+3616664Y+2467996D01*
X+3702008Y+2510668D02*
X+3691340Y+2500000D01*
X+3659336Y+2500000D01*
X+3648668Y+2510668D01*
X+3648668Y+2521336D01*
X+3659336Y+2532004D01*
X+3691340Y+2532004D01*
X+3702008Y+2521336D01*
X+3702008Y+2478664D01*
X+3691340Y+2467996D01*
X+3659336Y+2467996D01*
D21*
X+4304840Y+2462840D02*
X+5087160Y+2462840D01*
X+5087160Y+2737160D01*
X+4304840Y+2737160D01*
X+4304840Y+2462840D01*
D35*
X+4663081Y+2567081D02*
X+4646622Y+2550622D01*
X+4597245Y+2550622D01*
X+4564327Y+2583540D01*
X+4564327Y+2616459D01*
X+4597245Y+2649377D01*
X+4646622Y+2649377D01*
X+4663081Y+2632918D01*
X+4712459Y+2649377D02*
X+4794754Y+2649377D01*
X+4794754Y+2632918D01*
X+4712459Y+2550622D01*
D21*
X+3504840Y+2872840D02*
X+4287160Y+2872840D01*
X+4287160Y+3147160D01*
X+3504840Y+3147160D01*
X+3504840Y+2872840D01*
D35*
X+3797245Y+2977081D02*
X+3780786Y+2960622D01*
X+3731409Y+2960622D01*
X+3698491Y+2993540D01*
X+3698491Y+3026459D01*
X+3731409Y+3059377D01*
X+3780786Y+3059377D01*
X+3797245Y+3042918D01*
X+3863082Y+3026459D02*
X+3896000Y+3059377D01*
X+3896000Y+2960622D01*
X+3961837Y+2977081D02*
X+3961837Y+3042918D01*
X+3978296Y+3059377D01*
X+4044132Y+3059377D01*
X+4060591Y+3042918D01*
X+4060591Y+2977081D01*
X+4044132Y+2960622D01*
X+3978296Y+2960622D01*
X+3961837Y+2977081D01*
X+3961837Y+2960622D02*
X+4060591Y+3059377D01*
D21*
X+3342840Y+814840D02*
X+3617160Y+814840D01*
X+3617160Y+1597160D01*
X+3342840Y+1597160D01*
X+3342840Y+814840D01*
D35*
X+3512919Y+1107245D02*
X+3529378Y+1090786D01*
X+3529378Y+1041409D01*
X+3496460Y+1008491D01*
X+3463541Y+1008491D01*
X+3430623Y+1041409D01*
X+3430623Y+1090786D01*
X+3447082Y+1107245D01*
X+3463541Y+1173082D02*
X+3430623Y+1206000D01*
X+3529378Y+1206000D01*
X+3430623Y+1370591D02*
X+3430623Y+1288296D01*
X+3463541Y+1288296D01*
X+3463541Y+1354132D01*
X+3480000Y+1370591D01*
X+3512919Y+1370591D01*
X+3529378Y+1354132D01*
X+3529378Y+1304755D01*
X+3512919Y+1288296D01*
D21*
X+3502840Y+3962840D02*
X+4285160Y+3962840D01*
X+4285160Y+4237160D01*
X+3502840Y+4237160D01*
X+3502840Y+3962840D01*
D35*
X+3795245Y+4067081D02*
X+3778786Y+4050622D01*
X+3729409Y+4050622D01*
X+3696491Y+4083540D01*
X+3696491Y+4116459D01*
X+3729409Y+4149377D01*
X+3778786Y+4149377D01*
X+3795245Y+4132918D01*
X+3861082Y+4116459D02*
X+3894000Y+4149377D01*
X+3894000Y+4050622D01*
X+4058591Y+4132918D02*
X+4042132Y+4149377D01*
X+3992755Y+4149377D01*
X+3976296Y+4132918D01*
X+3976296Y+4067081D01*
X+3992755Y+4050622D01*
X+4042132Y+4050622D01*
X+4058591Y+4067081D01*
X+4058591Y+4083540D01*
X+4042132Y+4100000D01*
X+3976296Y+4100000D01*
D21*
X+824500Y+1362840D02*
X+1713500Y+1362840D01*
X+1713500Y+1891160D01*
X+824500Y+1891160D01*
X+824500Y+1362840D01*
D39*
X+1031934Y+1715900D02*
X+1031934Y+1567733D01*
X+1061567Y+1538100D01*
X+1180100Y+1538100D01*
X+1209733Y+1567733D01*
X+1209733Y+1715900D01*
X+1298633Y+1686267D02*
X+1328266Y+1715900D01*
X+1417166Y+1715900D01*
X+1446799Y+1686267D01*
X+1446799Y+1656633D01*
X+1417166Y+1627000D01*
X+1446799Y+1597367D01*
X+1446799Y+1567733D01*
X+1417166Y+1538100D01*
X+1328266Y+1538100D01*
X+1298633Y+1567733D01*
X+1357899Y+1627000D02*
X+1417166Y+1627000D01*
D21*
X+1064500Y+762840D02*
X+1953500Y+762840D01*
X+1953500Y+1291160D01*
X+1064500Y+1291160D01*
X+1064500Y+762840D01*
D39*
X+1271934Y+1115900D02*
X+1271934Y+967733D01*
X+1301567Y+938100D01*
X+1420100Y+938100D01*
X+1449733Y+967733D01*
X+1449733Y+1115900D01*
X+1686799Y+997367D02*
X+1509000Y+997367D01*
X+1627533Y+1115900D01*
X+1627533Y+938100D01*
D21*
X+1314500Y+162840D02*
X+2203500Y+162840D01*
X+2203500Y+691160D01*
X+1314500Y+691160D01*
X+1314500Y+162840D01*
D39*
X+1521934Y+515900D02*
X+1521934Y+367733D01*
X+1551567Y+338100D01*
X+1670100Y+338100D01*
X+1699733Y+367733D01*
X+1699733Y+515900D01*
X+1936799Y+515900D02*
X+1788633Y+515900D01*
X+1788633Y+456633D01*
X+1907166Y+456633D01*
X+1936799Y+427000D01*
X+1936799Y+367733D01*
X+1907166Y+338100D01*
X+1818266Y+338100D01*
X+1788633Y+367733D01*
D21*
X+1845100Y+1411100D02*
X+3038900Y+1411100D01*
X+3038900Y+1588900D01*
X+1845100Y+1588900D01*
X+1845100Y+1411100D01*
D34*
X+2356656Y+1467996D02*
X+2356656Y+1532004D01*
X+2409996Y+1532004D01*
X+2420664Y+1521336D01*
X+2420664Y+1510668D01*
X+2409996Y+1500000D01*
X+2356656Y+1500000D01*
X+2409996Y+1500000D02*
X+2420664Y+1489332D01*
X+2420664Y+1467996D01*
X+2452668Y+1521336D02*
X+2463336Y+1532004D01*
X+2495340Y+1532004D01*
X+2506008Y+1521336D01*
X+2506008Y+1510668D01*
X+2495340Y+1500000D01*
X+2506008Y+1489332D01*
X+2506008Y+1478664D01*
X+2495340Y+1467996D01*
X+2463336Y+1467996D01*
X+2452668Y+1478664D01*
X+2474004Y+1500000D02*
X+2495340Y+1500000D01*
D21*
X+2085100Y+811100D02*
X+3278900Y+811100D01*
X+3278900Y+988900D01*
X+2085100Y+988900D01*
X+2085100Y+811100D01*
D34*
X+2596656Y+867996D02*
X+2596656Y+932004D01*
X+2649996Y+932004D01*
X+2660664Y+921336D01*
X+2660664Y+910668D01*
X+2649996Y+900000D01*
X+2596656Y+900000D01*
X+2649996Y+900000D02*
X+2660664Y+889332D01*
X+2660664Y+867996D01*
X+2746008Y+889332D02*
X+2682000Y+889332D01*
X+2724672Y+932004D01*
X+2724672Y+867996D01*
D21*
X+2335100Y+131100D02*
X+3528900Y+131100D01*
X+3528900Y+308900D01*
X+2335100Y+308900D01*
X+2335100Y+131100D01*
D34*
X+2846656Y+187996D02*
X+2846656Y+252004D01*
X+2899996Y+252004D01*
X+2910664Y+241336D01*
X+2910664Y+230668D01*
X+2899996Y+220000D01*
X+2846656Y+220000D01*
X+2899996Y+220000D02*
X+2910664Y+209332D01*
X+2910664Y+187996D01*
X+2996008Y+252004D02*
X+2942668Y+252004D01*
X+2942668Y+230668D01*
X+2985340Y+230668D01*
X+2996008Y+220000D01*
X+2996008Y+198664D01*
X+2985340Y+187996D01*
X+2953336Y+187996D01*
X+2942668Y+198664D01*
D21*
X+2811100Y+1628400D02*
X+4004900Y+1628400D01*
X+4004900Y+1831600D01*
X+2811100Y+1831600D01*
X+2811100Y+1628400D01*
D41*
X+3310464Y+1693424D02*
X+3310464Y+1766576D01*
X+3359232Y+1766576D01*
X+3383616Y+1742192D01*
X+3383616Y+1717808D01*
X+3359232Y+1693424D01*
X+3310464Y+1693424D01*
X+3432384Y+1742192D02*
X+3456768Y+1766576D01*
X+3456768Y+1693424D01*
D21*
X+4231100Y+1441100D02*
X+5424900Y+1441100D01*
X+5424900Y+1618900D01*
X+4231100Y+1618900D01*
X+4231100Y+1441100D01*
D34*
X+4699984Y+1497996D02*
X+4699984Y+1562004D01*
X+4753324Y+1562004D01*
X+4763992Y+1551336D01*
X+4763992Y+1540668D01*
X+4753324Y+1530000D01*
X+4699984Y+1530000D01*
X+4753324Y+1530000D02*
X+4763992Y+1519332D01*
X+4763992Y+1497996D01*
X+4806664Y+1540668D02*
X+4828000Y+1562004D01*
X+4828000Y+1497996D01*
X+4892008Y+1540668D02*
X+4913344Y+1562004D01*
X+4913344Y+1497996D01*
D21*
X+4235100Y+1741100D02*
X+5428900Y+1741100D01*
X+5428900Y+1918900D01*
X+4235100Y+1918900D01*
X+4235100Y+1741100D01*
D34*
X+4703984Y+1797996D02*
X+4703984Y+1862004D01*
X+4757324Y+1862004D01*
X+4767992Y+1851336D01*
X+4767992Y+1840668D01*
X+4757324Y+1830000D01*
X+4703984Y+1830000D01*
X+4757324Y+1830000D02*
X+4767992Y+1819332D01*
X+4767992Y+1797996D01*
X+4810664Y+1840668D02*
X+4832000Y+1862004D01*
X+4832000Y+1797996D01*
X+4874672Y+1808664D02*
X+4874672Y+1851336D01*
X+4885340Y+1862004D01*
X+4928012Y+1862004D01*
X+4938680Y+1851336D01*
X+4938680Y+1808664D01*
X+4928012Y+1797996D01*
X+4885340Y+1797996D01*
X+4874672Y+1808664D01*
X+4874672Y+1797996D02*
X+4938680Y+1862004D01*
D21*
X+4312840Y+3962840D02*
X+5095160Y+3962840D01*
X+5095160Y+4237160D01*
X+4312840Y+4237160D01*
X+4312840Y+3962840D01*
D35*
X+4605245Y+4067081D02*
X+4588786Y+4050622D01*
X+4539409Y+4050622D01*
X+4506491Y+4083540D01*
X+4506491Y+4116459D01*
X+4539409Y+4149377D01*
X+4588786Y+4149377D01*
X+4605245Y+4132918D01*
X+4671082Y+4116459D02*
X+4704000Y+4149377D01*
X+4704000Y+4050622D01*
X+4802755Y+4116459D02*
X+4835673Y+4149377D01*
X+4835673Y+4050622D01*
M02*
