G04 PROTEUS RS274X GERBER FILE*
%FSLAX45Y45*%
%MOMM*%
G01*
%ADD10C,1.016000*%
%ADD12C,0.635000*%
%ADD22C,1.778000*%
%ADD11C,0.762000*%
%ADD13C,1.270000*%
%ADD14C,1.016000*%
%AMDIL005*
4,1,8,
-0.762000,0.965200,-0.457200,1.270000,0.457200,1.270000,0.762000,0.965200,0.762000,-0.965200,
0.457200,-1.270000,-0.457200,-1.270000,-0.762000,-0.965200,-0.762000,0.965200,
0*%
%ADD15DIL005*%
%ADD16R,2.032000X2.032000*%
%ADD17C,2.032000*%
%ADD18C,2.286000*%
%ADD19R,1.270000X1.270000*%
%ADD70C,1.778000*%
%ADD71R,1.778000X1.778000*%
%ADD20C,6.350000*%
%AMDIL015*
4,1,8,
-1.270000,0.457200,-0.965200,0.762000,0.965200,0.762000,1.270000,0.457200,1.270000,-0.457200,
0.965200,-0.762000,-0.965200,-0.762000,-1.270000,-0.457200,-1.270000,0.457200,
0*%
%ADD23DIL015*%
%ADD21C,0.203200*%
%TD.AperFunction*%
G36*
X+5119434Y+4493199D02*
X+4941454Y+4493199D01*
X+4819699Y+4502870D01*
X+4819699Y+4656801D01*
X+4955832Y+4656801D01*
X+5119434Y+4493199D01*
G37*
G36*
X+2183401Y+4320601D02*
X+2208801Y+4320601D01*
X+2208801Y+3929399D01*
X+405401Y+3929399D01*
X+405401Y+3370601D01*
X+511392Y+3370601D01*
X+446001Y+3305210D01*
X+446001Y+3094790D01*
X+594790Y+2946001D01*
X+666635Y+2946001D01*
X+166801Y+2446167D01*
X+166801Y+1665833D01*
X+535833Y+1296801D01*
X+684801Y+1296801D01*
X+684801Y+877833D01*
X+865833Y+696801D01*
X+924801Y+696801D01*
X+924801Y+267833D01*
X+1030075Y+162559D01*
X+827097Y+162559D01*
X+869899Y+205361D01*
X+869899Y+594639D01*
X+594639Y+869899D01*
X+205361Y+869899D01*
X+162559Y+827097D01*
X+162559Y+4172903D01*
X+205361Y+4130101D01*
X+594639Y+4130101D01*
X+869899Y+4405361D01*
X+869899Y+4794639D01*
X+827097Y+4837441D01*
X+2183401Y+4837441D01*
X+2183401Y+4320601D01*
G37*
G36*
X+3906701Y+4199949D02*
X+3906701Y+4000051D01*
X+3977353Y+3929399D01*
X+3810647Y+3929399D01*
X+3881299Y+4000051D01*
X+3881299Y+4199949D01*
X+3843199Y+4238049D01*
X+3843199Y+4320601D01*
X+4027353Y+4320601D01*
X+3906701Y+4199949D01*
G37*
G36*
X+3766317Y+3253683D02*
X+3761922Y+3249288D01*
X+3747210Y+3263999D01*
X+3536790Y+3263999D01*
X+3388001Y+3115210D01*
X+3388001Y+2904790D01*
X+3536790Y+2756001D01*
X+3747210Y+2756001D01*
X+3761922Y+2770712D01*
X+3829435Y+2703199D01*
X+3597833Y+2703199D01*
X+3478801Y+2584167D01*
X+3478801Y+2429399D01*
X+3371299Y+2429399D01*
X+3371299Y+2599949D01*
X+3367228Y+2604020D01*
X+3387999Y+2624790D01*
X+3387999Y+2835210D01*
X+3239210Y+2983999D01*
X+3028790Y+2983999D01*
X+2880001Y+2835210D01*
X+2880001Y+2733208D01*
X+2859210Y+2753999D01*
X+2648790Y+2753999D01*
X+2610690Y+2715899D01*
X+2369310Y+2715899D01*
X+2331210Y+2753999D01*
X+2279365Y+2753999D01*
X+2533367Y+3008001D01*
X+2605210Y+3008001D01*
X+2627000Y+3029791D01*
X+2648790Y+3008001D01*
X+2859210Y+3008001D01*
X+2910010Y+3058801D01*
X+2995990Y+3058801D01*
X+3028790Y+3026001D01*
X+3239210Y+3026001D01*
X+3387999Y+3174790D01*
X+3387999Y+3370601D01*
X+3883235Y+3370601D01*
X+3766317Y+3253683D01*
G37*
G36*
X+5746801Y+2848010D02*
X+5604001Y+2705210D01*
X+5604001Y+2494790D01*
X+5654801Y+2443990D01*
X+5654801Y+2429399D01*
X+5538608Y+2429399D01*
X+5603999Y+2494790D01*
X+5603999Y+2705210D01*
X+5455210Y+2853999D01*
X+5244790Y+2853999D01*
X+5150000Y+2759209D01*
X+5055210Y+2853999D01*
X+4844790Y+2853999D01*
X+4696001Y+2705210D01*
X+4696001Y+2494790D01*
X+4761392Y+2429399D01*
X+4630608Y+2429399D01*
X+4695999Y+2494790D01*
X+4695999Y+2705210D01*
X+4668808Y+2732402D01*
X+4733507Y+2797101D01*
X+4769428Y+2797101D01*
X+4895899Y+2923572D01*
X+4895899Y+2924101D01*
X+4896428Y+2924101D01*
X+5022899Y+3050572D01*
X+5022899Y+3126801D01*
X+5624167Y+3126801D01*
X+5746801Y+3249435D01*
X+5746801Y+2848010D01*
G37*
G36*
X+6351001Y+2066001D02*
X+6401801Y+2066001D01*
X+6401801Y+2056833D01*
X+7142001Y+1316633D01*
X+7142001Y+1244790D01*
X+7191791Y+1195000D01*
X+7142001Y+1145210D01*
X+7142001Y+1023999D01*
X+7022790Y+1023999D01*
X+6893078Y+894288D01*
X+6814167Y+973199D01*
X+6776010Y+973199D01*
X+6725210Y+1023999D01*
X+6633999Y+1023999D01*
X+6633999Y+1145210D01*
X+6584209Y+1195000D01*
X+6633999Y+1244790D01*
X+6633999Y+1455210D01*
X+6485210Y+1603999D01*
X+6274790Y+1603999D01*
X+6173999Y+1503208D01*
X+6173999Y+1655210D01*
X+6025210Y+1803999D01*
X+5814790Y+1803999D01*
X+5666001Y+1655210D01*
X+5666001Y+1499399D01*
X+5577299Y+1499399D01*
X+5577299Y+1629949D01*
X+5539199Y+1668049D01*
X+5539199Y+1687951D01*
X+5581299Y+1730051D01*
X+5581299Y+1783933D01*
X+5663199Y+1865833D01*
X+5663199Y+1870601D01*
X+5688599Y+1870601D01*
X+5688599Y+1946801D01*
X+5850150Y+1946801D01*
X+5850150Y+1921067D01*
X+5891067Y+1880150D01*
X+5948933Y+1880150D01*
X+5989850Y+1921067D01*
X+5989850Y+1978933D01*
X+5982074Y+1986708D01*
X+6061199Y+2065833D01*
X+6061199Y+2116801D01*
X+6351001Y+2116801D01*
X+6351001Y+2066001D01*
G37*
G36*
X+3224801Y+1847832D02*
X+3366712Y+1705921D01*
X+3226001Y+1565210D01*
X+3226001Y+1511365D01*
X+3203999Y+1533367D01*
X+3203999Y+1605210D01*
X+3153999Y+1655210D01*
X+3153999Y+1835210D01*
X+3118608Y+1870601D01*
X+3224801Y+1870601D01*
X+3224801Y+1847832D01*
G37*
G36*
X+8130101Y+4794639D02*
X+8130101Y+4405361D01*
X+8405361Y+4130101D01*
X+8794639Y+4130101D01*
X+8837441Y+4172903D01*
X+8837441Y+827097D01*
X+8794639Y+869899D01*
X+8405361Y+869899D01*
X+8203999Y+668537D01*
X+8203999Y+875210D01*
X+8153199Y+926010D01*
X+8153199Y+976001D01*
X+8255210Y+976001D01*
X+8403999Y+1124790D01*
X+8403999Y+1335210D01*
X+8255210Y+1483999D01*
X+8044790Y+1483999D01*
X+8040541Y+1479750D01*
X+8036791Y+1492000D01*
X+8044790Y+1484001D01*
X+8255210Y+1484001D01*
X+8403999Y+1632790D01*
X+8403999Y+1843210D01*
X+8255210Y+1991999D01*
X+8044790Y+1991999D01*
X+7996000Y+1943209D01*
X+7925210Y+2013999D01*
X+7714790Y+2013999D01*
X+7636551Y+1935760D01*
X+7496287Y+2084118D01*
X+7621699Y+2209530D01*
X+7621699Y+2430470D01*
X+7465470Y+2586699D01*
X+7244530Y+2586699D01*
X+7129697Y+2471866D01*
X+6863968Y+2752932D01*
X+6500155Y+2757211D01*
X+6368665Y+2888701D01*
X+6509949Y+2888701D01*
X+6651299Y+3030051D01*
X+6741528Y+3526728D01*
X+6803367Y+3816001D01*
X+6848999Y+3816001D01*
X+6848999Y+4323999D01*
X+6363199Y+4323999D01*
X+6363199Y+4474167D01*
X+6216699Y+4620667D01*
X+6216699Y+4710470D01*
X+6089728Y+4837441D01*
X+8172903Y+4837441D01*
X+8130101Y+4794639D01*
G37*
%LPC*%
G36*
X+7078301Y+3959530D02*
X+7078301Y+4180470D01*
X+7234530Y+4336699D01*
X+7455470Y+4336699D01*
X+7611699Y+4180470D01*
X+7611699Y+3959530D01*
X+7455470Y+3803301D01*
X+7234530Y+3803301D01*
X+7078301Y+3959530D01*
G37*
%LPD*%
G36*
X+6126001Y+1244790D02*
X+6127592Y+1243199D01*
X+6078010Y+1243199D01*
X+6025210Y+1295999D01*
X+5818599Y+1295999D01*
X+5818599Y+1296001D01*
X+6025210Y+1296001D01*
X+6126001Y+1396792D01*
X+6126001Y+1244790D01*
G37*
G36*
X+7714790Y+998001D02*
X+7746801Y+998001D01*
X+7746801Y+926010D01*
X+7696001Y+875210D01*
X+7696001Y+673999D01*
X+7695999Y+673999D01*
X+7695999Y+875210D01*
X+7643209Y+928000D01*
X+7649999Y+934790D01*
X+7649999Y+1062792D01*
X+7714790Y+998001D01*
G37*
G36*
X+5666001Y+936790D02*
X+5814790Y+788001D01*
X+6025210Y+788001D01*
X+6074010Y+836801D01*
X+6176801Y+836801D01*
X+6176801Y+673999D01*
X+5452001Y+673999D01*
X+5452001Y+623199D01*
X+5406949Y+623199D01*
X+5339399Y+698840D01*
X+5339399Y+928599D01*
X+3907965Y+928599D01*
X+3919967Y+940601D01*
X+5666001Y+940601D01*
X+5666001Y+936790D01*
G37*
G36*
X+7844790Y+516001D02*
X+8055210Y+516001D01*
X+8130101Y+590892D01*
X+8130101Y+205361D01*
X+8172903Y+162559D01*
X+4989399Y+162559D01*
X+4989399Y+471401D01*
X+4990765Y+471401D01*
X+5194905Y+251311D01*
X+5273216Y+216801D01*
X+5452001Y+216801D01*
X+5452001Y+166001D01*
X+6467999Y+166001D01*
X+6467999Y+386633D01*
X+6583199Y+501833D01*
X+6583199Y+516001D01*
X+6696633Y+516001D01*
X+6732001Y+480633D01*
X+6732001Y+166001D01*
X+7747999Y+166001D01*
X+7747999Y+612792D01*
X+7844790Y+516001D01*
G37*
D10*
X+6214000Y+420000D02*
X+6380000Y+586000D01*
X+6380000Y+1040000D01*
X+6380000Y+1350000D01*
X+7950000Y+770000D02*
X+7950000Y+1122000D01*
X+7820000Y+1252000D01*
X+7396000Y+1350000D02*
X+6605000Y+2141000D01*
X+6605000Y+2320000D01*
X+6138000Y+2320000D01*
X+5858000Y+2600000D01*
X+4320000Y+1220000D02*
X+4320000Y+1530000D01*
X+3812000Y+1220000D02*
X+3812000Y+1547999D01*
X+3428000Y+1931999D01*
X+3428000Y+2150000D01*
X+3190000Y+900000D02*
X+3190000Y+1260000D01*
X+2950000Y+1500000D01*
X+2226000Y+2500000D02*
X+2500000Y+2500000D01*
X+888000Y+1754000D02*
X+888000Y+2150000D01*
X+1128000Y+1154000D02*
X+1128000Y+2136000D01*
X+1142000Y+2150000D01*
X+1378000Y+554000D02*
X+1378000Y+2132000D01*
X+1396000Y+2150000D01*
X+1650000Y+1500000D02*
X+1950000Y+1500000D01*
X+1960000Y+1510000D01*
X+1934000Y+1500000D01*
X+1890000Y+900000D02*
X+2174000Y+900000D01*
X+3480000Y+952000D02*
X+3648000Y+1120000D01*
X+3812000Y+1120000D01*
X+3812000Y+1220000D01*
X+2950000Y+1500000D02*
X+2950000Y+1680000D01*
X+2900000Y+1730000D01*
X+5336000Y+1530000D02*
X+5336000Y+1826000D01*
X+5340000Y+1830000D01*
X+5460000Y+1950000D01*
X+5460000Y+2150000D01*
X+4574000Y+1220000D02*
X+4574000Y+1830000D01*
X+4324000Y+1830000D01*
X+4324000Y+1790000D02*
X+4324000Y+1800000D01*
X+4324000Y+1830000D01*
X+4320000Y+1530000D02*
X+4140000Y+1670000D01*
X+4060000Y+1940001D01*
X+3936000Y+2064001D01*
X+3936000Y+2150000D01*
X+1210000Y+2500000D02*
X+1650000Y+2500000D01*
X+1650000Y+2150000D01*
X+2412000Y+4600000D02*
X+2412000Y+3650000D01*
X+2666000Y+4600000D02*
X+2666000Y+3650000D01*
X+2920000Y+4600000D02*
X+2920000Y+3650000D01*
X+3174000Y+4600000D02*
X+3174000Y+3650000D01*
X+3428000Y+4600000D02*
X+3428000Y+3650000D01*
X+2754000Y+3262000D02*
X+3116000Y+3262000D01*
X+3134000Y+3280000D01*
X+6380000Y+1040000D02*
X+5922000Y+1040000D01*
X+5920000Y+1042000D01*
X+1904000Y+2150000D02*
X+1904000Y+2666000D01*
X+2500000Y+3262000D01*
X+2900000Y+1730000D02*
X+1904000Y+1730000D01*
X+1904000Y+2150000D01*
X+3916000Y+1730000D02*
X+3682000Y+1964000D01*
X+3682000Y+2150000D01*
X+4553000Y+3140000D02*
X+4743000Y+3330000D01*
X+5540000Y+3330000D01*
X+5720000Y+3510000D01*
X+5720000Y+3830001D01*
X+5260001Y+4290000D01*
X+4950000Y+4290000D01*
X+4710000Y+450000D02*
X+4710000Y+700000D01*
D12*
X+4710000Y+450000D02*
X+4710000Y+200000D01*
D10*
X+6986000Y+420000D02*
X+6986000Y+514000D01*
X+6730000Y+770000D01*
X+6620000Y+770000D01*
X+5060000Y+700000D02*
X+5316000Y+420000D01*
X+5706000Y+420000D01*
X+888000Y+1500000D02*
X+620000Y+1500000D01*
X+370000Y+1750000D01*
X+370000Y+2362000D01*
X+1208000Y+3200000D01*
X+1378000Y+300000D02*
X+1180000Y+300000D01*
X+1128000Y+352000D01*
X+1128000Y+900000D01*
X+950000Y+900000D01*
X+888000Y+962000D01*
X+888000Y+1500000D01*
X+4150000Y+3280000D02*
X+4080000Y+3280000D01*
X+3910000Y+3110000D01*
X+3910000Y+2910000D01*
X+4090000Y+2730000D01*
X+4150000Y+2730000D01*
X+4324000Y+1830000D02*
X+4260000Y+1990000D01*
X+4190000Y+2141398D01*
X+4190000Y+2150000D01*
D22*
X+6410000Y+3130000D02*
X+6595000Y+4070000D01*
D10*
X+7820000Y+1252000D02*
X+7847185Y+1417194D01*
X+6775472Y+2550760D01*
X+6415000Y+2555000D01*
X+6160000Y+2810000D01*
X+6160000Y+4390000D01*
X+5950000Y+4600000D01*
X+5858000Y+2600000D02*
X+5950000Y+2692000D01*
X+5950000Y+3949999D01*
X+5039999Y+4860000D01*
X+3682000Y+4860000D01*
X+3682000Y+4600000D01*
D11*
X+4680000Y+3013000D02*
X+4578401Y+2911401D01*
X+4528598Y+2911401D01*
X+4159997Y+3280002D01*
X+4150000Y+3280000D01*
D10*
X+4442000Y+2600000D02*
X+4442000Y+2590000D01*
X+4352000Y+2500000D01*
X+4146000Y+2500000D01*
X+3682000Y+2150000D02*
X+3682000Y+2500000D01*
X+4146000Y+2500000D01*
X+3640000Y+4100000D02*
X+3640000Y+4518000D01*
X+3722000Y+4600000D01*
X+3682000Y+4600000D01*
X+4958000Y+4282000D02*
X+4430000Y+4330000D01*
X+4190000Y+4510000D01*
X+4190000Y+4600000D01*
X+4958000Y+4100000D02*
X+4958000Y+4282000D01*
X+4950000Y+4290000D01*
X+3440000Y+220000D02*
X+3440000Y+650000D01*
X+3190000Y+900000D01*
X+2140000Y+300000D02*
X+2140000Y+220000D01*
X+2424000Y+220000D01*
D11*
X+3910000Y+200000D02*
X+4310000Y+200000D01*
X+3910000Y+450000D02*
X+4310000Y+450000D01*
X+3910000Y+700000D02*
X+4310000Y+700000D01*
D10*
X+5460000Y+2150000D02*
X+5858000Y+2150000D01*
X+5858000Y+2600000D01*
D11*
X+5920000Y+1550000D02*
X+5920000Y+1950000D01*
D10*
X+7240000Y+420000D02*
X+7128000Y+770000D01*
X+3174000Y+2150000D02*
X+3130000Y+2500000D01*
D13*
X+6410000Y+3130000D03*
X+3910000Y+200000D03*
X+3910000Y+450000D03*
X+3910000Y+700000D03*
X+4310000Y+200000D03*
X+4310000Y+450000D03*
X+4310000Y+700000D03*
X+4710000Y+700000D03*
X+4710000Y+450000D03*
X+4710000Y+200000D03*
X+5060000Y+700000D03*
D14*
X+5920000Y+1950000D03*
D10*
X+5119434Y+4493199D02*
X+4941454Y+4493199D01*
X+4819699Y+4502870D01*
X+4819699Y+4656801D01*
X+4955832Y+4656801D01*
X+5119434Y+4493199D01*
X+2183401Y+4320601D02*
X+2208801Y+4320601D01*
X+2208801Y+3929399D01*
X+405401Y+3929399D01*
X+405401Y+3370601D01*
X+511392Y+3370601D01*
X+446001Y+3305210D01*
X+446001Y+3094790D01*
X+594790Y+2946001D01*
X+666635Y+2946001D01*
X+166801Y+2446167D01*
X+166801Y+1665833D01*
X+535833Y+1296801D01*
X+684801Y+1296801D01*
X+684801Y+877833D01*
X+865833Y+696801D01*
X+924801Y+696801D01*
X+924801Y+267833D01*
X+1030075Y+162559D01*
X+827097Y+162559D01*
X+869899Y+205361D01*
X+869899Y+594639D01*
X+594639Y+869899D01*
X+205361Y+869899D01*
X+162559Y+827097D01*
X+162559Y+4172903D01*
X+205361Y+4130101D01*
X+594639Y+4130101D01*
X+869899Y+4405361D01*
X+869899Y+4794639D01*
X+827097Y+4837441D01*
X+2183401Y+4837441D01*
X+2183401Y+4320601D01*
X+3906701Y+4199949D02*
X+3906701Y+4000051D01*
X+3977353Y+3929399D01*
X+3810647Y+3929399D01*
X+3881299Y+4000051D01*
X+3881299Y+4199949D01*
X+3843199Y+4238049D01*
X+3843199Y+4320601D01*
X+4027353Y+4320601D01*
X+3906701Y+4199949D01*
X+3766317Y+3253683D02*
X+3761922Y+3249288D01*
X+3747210Y+3263999D01*
X+3536790Y+3263999D01*
X+3388001Y+3115210D01*
X+3388001Y+2904790D01*
X+3536790Y+2756001D01*
X+3747210Y+2756001D01*
X+3761922Y+2770712D01*
X+3829435Y+2703199D01*
X+3597833Y+2703199D01*
X+3478801Y+2584167D01*
X+3478801Y+2429399D01*
X+3371299Y+2429399D01*
X+3371299Y+2599949D01*
X+3367228Y+2604020D01*
X+3387999Y+2624790D01*
X+3387999Y+2835210D01*
X+3239210Y+2983999D01*
X+3028790Y+2983999D01*
X+2880001Y+2835210D01*
X+2880001Y+2733208D01*
X+2859210Y+2753999D01*
X+2648790Y+2753999D01*
X+2610690Y+2715899D01*
X+2369310Y+2715899D01*
X+2331210Y+2753999D01*
X+2279365Y+2753999D01*
X+2533367Y+3008001D01*
X+2605210Y+3008001D01*
X+2627000Y+3029791D01*
X+2648790Y+3008001D01*
X+2859210Y+3008001D01*
X+2910010Y+3058801D01*
X+2995990Y+3058801D01*
X+3028790Y+3026001D01*
X+3239210Y+3026001D01*
X+3387999Y+3174790D01*
X+3387999Y+3370601D01*
X+3883235Y+3370601D01*
X+3766317Y+3253683D01*
X+5746801Y+2848010D02*
X+5604001Y+2705210D01*
X+5604001Y+2494790D01*
X+5654801Y+2443990D01*
X+5654801Y+2429399D01*
X+5538608Y+2429399D01*
X+5603999Y+2494790D01*
X+5603999Y+2705210D01*
X+5455210Y+2853999D01*
X+5244790Y+2853999D01*
X+5150000Y+2759209D01*
X+5055210Y+2853999D01*
X+4844790Y+2853999D01*
X+4696001Y+2705210D01*
X+4696001Y+2494790D01*
X+4761392Y+2429399D01*
X+4630608Y+2429399D01*
X+4695999Y+2494790D01*
X+4695999Y+2705210D01*
X+4668808Y+2732402D01*
X+4733507Y+2797101D01*
X+4769428Y+2797101D01*
X+4895899Y+2923572D01*
X+4895899Y+2924101D01*
X+4896428Y+2924101D01*
X+5022899Y+3050572D01*
X+5022899Y+3126801D01*
X+5624167Y+3126801D01*
X+5746801Y+3249435D01*
X+5746801Y+2848010D01*
X+6351001Y+2066001D02*
X+6401801Y+2066001D01*
X+6401801Y+2056833D01*
X+7142001Y+1316633D01*
X+7142001Y+1244790D01*
X+7191791Y+1195000D01*
X+7142001Y+1145210D01*
X+7142001Y+1023999D01*
X+7022790Y+1023999D01*
X+6893078Y+894288D01*
X+6814167Y+973199D01*
X+6776010Y+973199D01*
X+6725210Y+1023999D01*
X+6633999Y+1023999D01*
X+6633999Y+1145210D01*
X+6584209Y+1195000D01*
X+6633999Y+1244790D01*
X+6633999Y+1455210D01*
X+6485210Y+1603999D01*
X+6274790Y+1603999D01*
X+6173999Y+1503208D01*
X+6173999Y+1655210D01*
X+6025210Y+1803999D01*
X+5814790Y+1803999D01*
X+5666001Y+1655210D01*
X+5666001Y+1499399D01*
X+5577299Y+1499399D01*
X+5577299Y+1629949D01*
X+5539199Y+1668049D01*
X+5539199Y+1687951D01*
X+5581299Y+1730051D01*
X+5581299Y+1783933D01*
X+5663199Y+1865833D01*
X+5663199Y+1870601D01*
X+5688599Y+1870601D01*
X+5688599Y+1946801D01*
X+5850150Y+1946801D01*
X+5850150Y+1921067D01*
X+5891067Y+1880150D01*
X+5948933Y+1880150D01*
X+5989850Y+1921067D01*
X+5989850Y+1978933D01*
X+5982074Y+1986708D01*
X+6061199Y+2065833D01*
X+6061199Y+2116801D01*
X+6351001Y+2116801D01*
X+6351001Y+2066001D01*
X+3224801Y+1847832D02*
X+3366712Y+1705921D01*
X+3226001Y+1565210D01*
X+3226001Y+1511365D01*
X+3203999Y+1533367D01*
X+3203999Y+1605210D01*
X+3153999Y+1655210D01*
X+3153999Y+1835210D01*
X+3118608Y+1870601D01*
X+3224801Y+1870601D01*
X+3224801Y+1847832D01*
X+8130101Y+4794639D02*
X+8130101Y+4405361D01*
X+8405361Y+4130101D01*
X+8794639Y+4130101D01*
X+8837441Y+4172903D01*
X+8837441Y+827097D01*
X+8794639Y+869899D01*
X+8405361Y+869899D01*
X+8203999Y+668537D01*
X+8203999Y+875210D01*
X+8153199Y+926010D01*
X+8153199Y+976001D01*
X+8255210Y+976001D01*
X+8403999Y+1124790D01*
X+8403999Y+1335210D01*
X+8255210Y+1483999D01*
X+8044790Y+1483999D01*
X+8040541Y+1479750D01*
X+8036791Y+1492000D01*
X+8044790Y+1484001D01*
X+8255210Y+1484001D01*
X+8403999Y+1632790D01*
X+8403999Y+1843210D01*
X+8255210Y+1991999D01*
X+8044790Y+1991999D01*
X+7996000Y+1943209D01*
X+7925210Y+2013999D01*
X+7714790Y+2013999D01*
X+7636551Y+1935760D01*
X+7496287Y+2084118D01*
X+7621699Y+2209530D01*
X+7621699Y+2430470D01*
X+7465470Y+2586699D01*
X+7244530Y+2586699D01*
X+7129697Y+2471866D01*
X+6863968Y+2752932D01*
X+6500155Y+2757211D01*
X+6368665Y+2888701D01*
X+6509949Y+2888701D01*
X+6651299Y+3030051D01*
X+6741528Y+3526728D01*
X+6803367Y+3816001D01*
X+6848999Y+3816001D01*
X+6848999Y+4323999D01*
X+6363199Y+4323999D01*
X+6363199Y+4474167D01*
X+6216699Y+4620667D01*
X+6216699Y+4710470D01*
X+6089728Y+4837441D01*
X+8172903Y+4837441D01*
X+8130101Y+4794639D01*
X+7078301Y+3959530D02*
X+7078301Y+4180470D01*
X+7234530Y+4336699D01*
X+7455470Y+4336699D01*
X+7611699Y+4180470D01*
X+7611699Y+3959530D01*
X+7455470Y+3803301D01*
X+7234530Y+3803301D01*
X+7078301Y+3959530D01*
X+6126001Y+1244790D02*
X+6127592Y+1243199D01*
X+6078010Y+1243199D01*
X+6025210Y+1295999D01*
X+5818599Y+1295999D01*
X+5818599Y+1296001D01*
X+6025210Y+1296001D01*
X+6126001Y+1396792D01*
X+6126001Y+1244790D01*
X+7714790Y+998001D02*
X+7746801Y+998001D01*
X+7746801Y+926010D01*
X+7696001Y+875210D01*
X+7696001Y+673999D01*
X+7695999Y+673999D01*
X+7695999Y+875210D01*
X+7643209Y+928000D01*
X+7649999Y+934790D01*
X+7649999Y+1062792D01*
X+7714790Y+998001D01*
X+5666001Y+936790D02*
X+5814790Y+788001D01*
X+6025210Y+788001D01*
X+6074010Y+836801D01*
X+6176801Y+836801D01*
X+6176801Y+673999D01*
X+5452001Y+673999D01*
X+5452001Y+623199D01*
X+5406949Y+623199D01*
X+5339399Y+698840D01*
X+5339399Y+928599D01*
X+3907965Y+928599D01*
X+3919967Y+940601D01*
X+5666001Y+940601D01*
X+5666001Y+936790D01*
X+7844790Y+516001D02*
X+8055210Y+516001D01*
X+8130101Y+590892D01*
X+8130101Y+205361D01*
X+8172903Y+162559D01*
X+4989399Y+162559D01*
X+4989399Y+471401D01*
X+4990765Y+471401D01*
X+5194905Y+251311D01*
X+5273216Y+216801D01*
X+5452001Y+216801D01*
X+5452001Y+166001D01*
X+6467999Y+166001D01*
X+6467999Y+386633D01*
X+6583199Y+501833D01*
X+6583199Y+516001D01*
X+6696633Y+516001D01*
X+6732001Y+480633D01*
X+6732001Y+166001D01*
X+7747999Y+166001D01*
X+7747999Y+612792D01*
X+7844790Y+516001D01*
X+888000Y+3929399D02*
X+888000Y+3650000D01*
X+405401Y+3650000D02*
X+634000Y+3650000D01*
X+634000Y+3929399D02*
X+634000Y+3650000D01*
X+3174000Y+1870601D02*
X+3174000Y+2150000D01*
X+3936000Y+4320601D02*
X+3936000Y+4600000D01*
X+5590000Y+1499399D02*
X+5590000Y+1220000D01*
X+5590000Y+940601D02*
X+5590000Y+1220000D01*
X+5336000Y+940601D02*
X+5336000Y+1220000D01*
X+4066000Y+940601D02*
X+4066000Y+1220000D01*
X+7240000Y+166001D02*
X+7240000Y+420000D01*
X+7142001Y+1040000D02*
X+7396000Y+1040000D01*
X+7649999Y+1040000D02*
X+7396000Y+1040000D01*
X+7820000Y+2013999D02*
X+7820000Y+1760000D01*
X+7695999Y+770000D02*
X+7442000Y+770000D01*
X+5666001Y+1550000D02*
X+5920000Y+1550000D01*
X+6173999Y+1550000D02*
X+5920000Y+1550000D01*
X+5920000Y+1296001D02*
X+5920000Y+1550000D01*
X+5920000Y+1803999D02*
X+5920000Y+1550000D01*
X+7621699Y+2320000D02*
X+7355000Y+2320000D01*
X+7355000Y+2586699D02*
X+7355000Y+2320000D01*
X+7078301Y+4070000D02*
X+7345000Y+4070000D01*
X+7611699Y+4070000D02*
X+7345000Y+4070000D01*
X+7345000Y+3803301D02*
X+7345000Y+4070000D01*
X+7345000Y+4336699D02*
X+7345000Y+4070000D01*
X+4819699Y+4600000D02*
X+4553000Y+4600000D01*
X+8403999Y+1738000D02*
X+8150000Y+1738000D01*
X+8150000Y+1484001D02*
X+8150000Y+1738000D01*
X+8150000Y+1991999D02*
X+8150000Y+1738000D01*
X+7128000Y+1023999D02*
X+7128000Y+770000D01*
X+5603999Y+2600000D02*
X+5350000Y+2600000D01*
X+5350000Y+2853999D02*
X+5350000Y+2600000D01*
X+446001Y+3200000D02*
X+700000Y+3200000D01*
X+2754000Y+2753999D02*
X+2754000Y+2500000D01*
X+3387999Y+2730000D02*
X+3134000Y+2730000D01*
X+3134000Y+2983999D02*
X+3134000Y+2730000D01*
X+3371299Y+2500000D02*
X+3130000Y+2500000D01*
X+4696001Y+2600000D02*
X+4950000Y+2600000D01*
X+4950000Y+2853999D02*
X+4950000Y+2600000D01*
X+3388001Y+3010000D02*
X+3642000Y+3010000D01*
X+3642000Y+2756001D02*
X+3642000Y+3010000D01*
X+3642000Y+3263999D02*
X+3642000Y+3010000D01*
X+3906701Y+4100000D02*
X+4148000Y+4100000D01*
D15*
X+5460000Y+3650000D03*
X+5206000Y+3650000D03*
X+4952000Y+3650000D03*
X+4698000Y+3650000D03*
X+4444000Y+3650000D03*
X+4190000Y+3650000D03*
X+3936000Y+3650000D03*
X+3682000Y+3650000D03*
X+3428000Y+3650000D03*
X+3174000Y+3650000D03*
X+2920000Y+3650000D03*
X+2666000Y+3650000D03*
X+2412000Y+3650000D03*
X+2158000Y+3650000D03*
X+1904000Y+3650000D03*
X+1650000Y+3650000D03*
X+1396000Y+3650000D03*
X+1142000Y+3650000D03*
X+888000Y+3650000D03*
X+634000Y+3650000D03*
X+5460000Y+2150000D03*
X+5206000Y+2150000D03*
X+4952000Y+2150000D03*
X+4698000Y+2150000D03*
X+4444000Y+2150000D03*
X+4190000Y+2150000D03*
X+3936000Y+2150000D03*
X+3682000Y+2150000D03*
X+3428000Y+2150000D03*
X+3174000Y+2150000D03*
X+2920000Y+2150000D03*
X+2666000Y+2150000D03*
X+2412000Y+2150000D03*
X+2158000Y+2150000D03*
X+1904000Y+2150000D03*
X+1650000Y+2150000D03*
X+1396000Y+2150000D03*
X+1142000Y+2150000D03*
X+888000Y+2150000D03*
X+634000Y+2150000D03*
X+4190000Y+4600000D03*
X+3936000Y+4600000D03*
X+3682000Y+4600000D03*
X+3428000Y+4600000D03*
X+3174000Y+4600000D03*
X+2920000Y+4600000D03*
X+2666000Y+4600000D03*
X+2412000Y+4600000D03*
X+5590000Y+1220000D03*
X+5336000Y+1220000D03*
X+5082000Y+1220000D03*
X+4828000Y+1220000D03*
X+4574000Y+1220000D03*
X+4320000Y+1220000D03*
X+4066000Y+1220000D03*
X+3812000Y+1220000D03*
D16*
X+7494000Y+420000D03*
X+7240000Y+420000D03*
X+6986000Y+420000D03*
X+6214000Y+420000D03*
X+5960000Y+420000D03*
X+5706000Y+420000D03*
D17*
X+6380000Y+1040000D03*
X+7396000Y+1040000D03*
X+7396000Y+1350000D03*
X+6380000Y+1350000D03*
X+1210000Y+2500000D03*
X+2226000Y+2500000D03*
X+7820000Y+1760000D03*
X+7820000Y+1252000D03*
X+7950000Y+770000D03*
X+7442000Y+770000D03*
X+5920000Y+1550000D03*
X+5920000Y+1042000D03*
D16*
X+6605000Y+2320000D03*
D18*
X+7355000Y+2320000D03*
D16*
X+6595000Y+4070000D03*
D18*
X+7345000Y+4070000D03*
X+4553000Y+4600000D03*
X+5950000Y+4600000D03*
D17*
X+8150000Y+1230000D03*
X+8150000Y+1738000D03*
X+6620000Y+770000D03*
X+7128000Y+770000D03*
X+5350000Y+2600000D03*
X+5858000Y+2600000D03*
X+700000Y+3200000D03*
X+1208000Y+3200000D03*
D19*
X+2500000Y+2500000D03*
D17*
X+2754000Y+2500000D03*
X+2754000Y+3262000D03*
X+2500000Y+3262000D03*
X+4150000Y+3280000D03*
X+3134000Y+3280000D03*
X+3134000Y+2730000D03*
D70*
X+4150000Y+2730000D03*
D13*
X+4553000Y+3140000D03*
X+4680000Y+3013000D03*
X+4807000Y+3140000D03*
D70*
X+3130000Y+2500000D03*
X+4146000Y+2500000D03*
D17*
X+4950000Y+2600000D03*
X+4442000Y+2600000D03*
X+4150000Y+3010000D03*
X+3642000Y+3010000D03*
X+3480000Y+952000D03*
X+3480000Y+1460000D03*
D70*
X+3640000Y+4100000D03*
X+4148000Y+4100000D03*
D71*
X+1650000Y+1500000D03*
D17*
X+1650000Y+1754000D03*
X+888000Y+1754000D03*
X+888000Y+1500000D03*
D71*
X+1890000Y+900000D03*
D17*
X+1890000Y+1154000D03*
X+1128000Y+1154000D03*
X+1128000Y+900000D03*
D71*
X+2140000Y+300000D03*
D17*
X+2140000Y+554000D03*
X+1378000Y+554000D03*
X+1378000Y+300000D03*
X+2950000Y+1500000D03*
X+1934000Y+1500000D03*
D70*
X+3190000Y+900000D03*
D17*
X+2174000Y+900000D03*
D70*
X+3440000Y+220000D03*
D17*
X+2424000Y+220000D03*
D70*
X+3916000Y+1730000D03*
D17*
X+2900000Y+1730000D03*
D70*
X+5336000Y+1530000D03*
X+4320000Y+1530000D03*
X+5340000Y+1830000D03*
X+4324000Y+1830000D03*
D20*
X+400000Y+400000D03*
X+400000Y+4600000D03*
X+8600000Y+4600000D03*
X+8600000Y+400000D03*
D23*
X+4710000Y+200000D03*
X+4710000Y+450000D03*
X+4710000Y+700000D03*
X+4310000Y+700000D03*
X+4310000Y+450000D03*
X+4310000Y+200000D03*
X+3910000Y+200000D03*
X+3910000Y+450000D03*
X+3910000Y+700000D03*
D70*
X+4450000Y+4100000D03*
X+4958000Y+4100000D03*
D23*
X+5060000Y+700000D03*
D21*
X+0Y+0D02*
X+9000000Y+0D01*
X+9000000Y+5000000D01*
X+0Y+5000000D01*
X+0Y+0D01*
M02*
