G04 PROTEUS RS274X GERBER FILE*
%FSLAX45Y45*%
%MOMM*%
G01*
%ADD10C,1.016000*%
%ADD11C,0.762000*%
%ADD12C,0.635000*%
%ADD13C,1.270000*%
%ADD14C,1.016000*%
%AMDIL005*
4,1,8,
-0.762000,0.965200,-0.457200,1.270000,0.457200,1.270000,0.762000,0.965200,0.762000,-0.965200,
0.457200,-1.270000,-0.457200,-1.270000,-0.762000,-0.965200,-0.762000,0.965200,
0*%
%ADD15DIL005*%
%ADD16R,2.032000X2.032000*%
%ADD17C,2.032000*%
%ADD18C,2.286000*%
%ADD19R,1.270000X1.270000*%
%ADD70C,1.778000*%
%ADD71R,1.778000X1.778000*%
%ADD20C,6.350000*%
%ADD21C,0.203200*%
%TD.AperFunction*%
G36*
X+8130101Y+4794639D02*
X+8130101Y+4405361D01*
X+8405361Y+4130101D01*
X+8794639Y+4130101D01*
X+8837441Y+4172903D01*
X+8837441Y+827097D01*
X+8794639Y+869899D01*
X+8405361Y+869899D01*
X+8203999Y+668537D01*
X+8203999Y+875210D01*
X+8143288Y+935922D01*
X+8183367Y+976001D01*
X+8255210Y+976001D01*
X+8403999Y+1124790D01*
X+8403999Y+1335210D01*
X+8255210Y+1483999D01*
X+8044790Y+1483999D01*
X+7996000Y+1435209D01*
X+7925210Y+1505999D01*
X+7714790Y+1505999D01*
X+7649999Y+1441208D01*
X+7649999Y+1455210D01*
X+7501210Y+1603999D01*
X+7290790Y+1603999D01*
X+7142001Y+1455210D01*
X+7142001Y+1244790D01*
X+7191791Y+1195000D01*
X+7142001Y+1145210D01*
X+7142001Y+1023999D01*
X+7022790Y+1023999D01*
X+6874001Y+875210D01*
X+6874001Y+673999D01*
X+6873999Y+673999D01*
X+6873999Y+875210D01*
X+6833199Y+916010D01*
X+6833199Y+1644168D01*
X+6435980Y+2041387D01*
X+6440323Y+2066001D01*
X+6858999Y+2066001D01*
X+6858999Y+2573999D01*
X+6529951Y+2573999D01*
X+6609351Y+3024024D01*
X+6625899Y+3040572D01*
X+6625899Y+3219428D01*
X+6499428Y+3345899D01*
X+6320572Y+3345899D01*
X+6308970Y+3334297D01*
X+5651218Y+3338197D01*
X+4909247Y+3343080D01*
X+4896428Y+3355899D01*
X+4860507Y+3355899D01*
X+4845805Y+3370601D01*
X+5688599Y+3370601D01*
X+5688599Y+3929399D01*
X+5128647Y+3929399D01*
X+5199299Y+4000051D01*
X+5199299Y+4199949D01*
X+5057949Y+4341299D01*
X+4858051Y+4341299D01*
X+4716701Y+4199949D01*
X+4716701Y+4000051D01*
X+4787353Y+3929399D01*
X+4620647Y+3929399D01*
X+4691299Y+4000051D01*
X+4691299Y+4199949D01*
X+4557947Y+4333301D01*
X+4663470Y+4333301D01*
X+4819699Y+4489530D01*
X+4819699Y+4710470D01*
X+4692728Y+4837441D01*
X+5810272Y+4837441D01*
X+5683301Y+4710470D01*
X+5683301Y+4489530D01*
X+5839530Y+4333301D01*
X+6060470Y+4333301D01*
X+6216699Y+4489530D01*
X+6216699Y+4710470D01*
X+6089728Y+4837441D01*
X+8172903Y+4837441D01*
X+8130101Y+4794639D01*
G37*
%LPC*%
G36*
X+7996000Y+1943209D02*
X+8044790Y+1991999D01*
X+8255210Y+1991999D01*
X+8403999Y+1843210D01*
X+8403999Y+1632790D01*
X+8255210Y+1484001D01*
X+8044790Y+1484001D01*
X+7974000Y+1554791D01*
X+7925210Y+1506001D01*
X+7714790Y+1506001D01*
X+7566001Y+1654790D01*
X+7566001Y+1865210D01*
X+7714790Y+2013999D01*
X+7925210Y+2013999D01*
X+7996000Y+1943209D01*
G37*
G36*
X+7088301Y+2209530D02*
X+7088301Y+2430470D01*
X+7244530Y+2586699D01*
X+7465470Y+2586699D01*
X+7621699Y+2430470D01*
X+7621699Y+2209530D01*
X+7465470Y+2053301D01*
X+7244530Y+2053301D01*
X+7088301Y+2209530D01*
G37*
G36*
X+6341001Y+4323999D02*
X+6848999Y+4323999D01*
X+6848999Y+3816001D01*
X+6341001Y+3816001D01*
X+6341001Y+4323999D01*
G37*
G36*
X+7078301Y+3959530D02*
X+7078301Y+4180470D01*
X+7234530Y+4336699D01*
X+7455470Y+4336699D01*
X+7611699Y+4180470D01*
X+7611699Y+3959530D01*
X+7455470Y+3803301D01*
X+7234530Y+3803301D01*
X+7078301Y+3959530D01*
G37*
%LPD*%
G36*
X+2183401Y+4320601D02*
X+3519353Y+4320601D01*
X+3501951Y+4303199D01*
X+1057833Y+4303199D01*
X+938801Y+4184167D01*
X+938801Y+3929399D01*
X+405401Y+3929399D01*
X+405401Y+3370601D01*
X+511392Y+3370601D01*
X+446001Y+3305210D01*
X+446001Y+3094790D01*
X+594790Y+2946001D01*
X+805210Y+2946001D01*
X+953999Y+3094790D01*
X+953999Y+3166635D01*
X+954001Y+3166633D01*
X+954001Y+3094790D01*
X+1102790Y+2946001D01*
X+1313210Y+2946001D01*
X+1461999Y+3094790D01*
X+1461999Y+3305210D01*
X+1396608Y+3370601D01*
X+2249392Y+3370601D01*
X+2246001Y+3367210D01*
X+2246001Y+3156790D01*
X+2373573Y+3029218D01*
X+2439352Y+2901884D01*
X+2540051Y+2836801D01*
X+2881592Y+2836801D01*
X+2880001Y+2835210D01*
X+2880001Y+2733208D01*
X+2859210Y+2753999D01*
X+2648790Y+2753999D01*
X+2610690Y+2715899D01*
X+2369310Y+2715899D01*
X+2331210Y+2753999D01*
X+2120790Y+2753999D01*
X+1972001Y+2605210D01*
X+1972001Y+2429399D01*
X+1463999Y+2429399D01*
X+1463999Y+2605210D01*
X+1315210Y+2753999D01*
X+1104790Y+2753999D01*
X+956001Y+2605210D01*
X+956001Y+2429399D01*
X+405401Y+2429399D01*
X+405401Y+1870601D01*
X+645392Y+1870601D01*
X+634001Y+1859210D01*
X+634001Y+1648790D01*
X+655791Y+1627000D01*
X+634001Y+1605210D01*
X+634001Y+1394790D01*
X+782790Y+1246001D01*
X+874001Y+1246001D01*
X+874001Y+1048790D01*
X+895791Y+1027000D01*
X+874001Y+1005210D01*
X+874001Y+794790D01*
X+1022790Y+646001D01*
X+1124001Y+646001D01*
X+1124001Y+448790D01*
X+1145791Y+427000D01*
X+1124001Y+405210D01*
X+1124001Y+194790D01*
X+1156232Y+162559D01*
X+827097Y+162559D01*
X+869899Y+205361D01*
X+869899Y+594639D01*
X+594639Y+869899D01*
X+205361Y+869899D01*
X+162559Y+827097D01*
X+162559Y+4172903D01*
X+205361Y+4130101D01*
X+594639Y+4130101D01*
X+869899Y+4405361D01*
X+869899Y+4794639D01*
X+827097Y+4837441D01*
X+2183401Y+4837441D01*
X+2183401Y+4320601D01*
G37*
G36*
X+3906701Y+4199949D02*
X+3906701Y+4000051D01*
X+3977353Y+3929399D01*
X+3810647Y+3929399D01*
X+3881299Y+4000051D01*
X+3881299Y+4199949D01*
X+3760647Y+4320601D01*
X+4027353Y+4320601D01*
X+3906701Y+4199949D01*
G37*
G36*
X+5565782Y+2931803D02*
X+6161742Y+2927881D01*
X+6111999Y+2611827D01*
X+6111999Y+2705210D01*
X+5963210Y+2853999D01*
X+5752790Y+2853999D01*
X+5604001Y+2705210D01*
X+5604001Y+2494790D01*
X+5669392Y+2429399D01*
X+5538608Y+2429399D01*
X+5603999Y+2494790D01*
X+5603999Y+2705210D01*
X+5455210Y+2853999D01*
X+5244790Y+2853999D01*
X+5150000Y+2759209D01*
X+5055210Y+2853999D01*
X+4844790Y+2853999D01*
X+4696001Y+2705210D01*
X+4696001Y+2494790D01*
X+4761392Y+2429399D01*
X+4630608Y+2429399D01*
X+4695999Y+2494790D01*
X+4695999Y+2705210D01*
X+4645199Y+2756010D01*
X+4645199Y+2797101D01*
X+4769428Y+2797101D01*
X+4895899Y+2923572D01*
X+4895899Y+2924101D01*
X+4896428Y+2924101D01*
X+4908030Y+2935703D01*
X+5565782Y+2931803D01*
G37*
G36*
X+3536790Y+2756001D02*
X+3747210Y+2756001D01*
X+3851922Y+2860712D01*
X+3905833Y+2806801D01*
X+3908701Y+2806801D01*
X+3908701Y+2630051D01*
X+3921752Y+2617000D01*
X+3904701Y+2599949D01*
X+3904701Y+2429399D01*
X+3371299Y+2429399D01*
X+3371299Y+2599949D01*
X+3367228Y+2604020D01*
X+3387999Y+2624790D01*
X+3387999Y+2835210D01*
X+3386408Y+2836801D01*
X+3404167Y+2836801D01*
X+3430078Y+2862712D01*
X+3536790Y+2756001D01*
G37*
G36*
X+6011486Y+1973199D02*
X+5989850Y+1973199D01*
X+5989850Y+1978933D01*
X+5948933Y+2019850D01*
X+5891067Y+2019850D01*
X+5850150Y+1978933D01*
X+5850150Y+1973199D01*
X+5688599Y+1973199D01*
X+5688599Y+2410192D01*
X+5752790Y+2346001D01*
X+5963210Y+2346001D01*
X+6090138Y+2472929D01*
X+6011486Y+1973199D01*
G37*
G36*
X+5666001Y+1499399D02*
X+5592765Y+1499399D01*
X+5660167Y+1566801D01*
X+5666001Y+1566801D01*
X+5666001Y+1499399D01*
G37*
G36*
X+4078701Y+1499399D02*
X+4026647Y+1499399D01*
X+4078701Y+1551453D01*
X+4078701Y+1499399D01*
G37*
G36*
X+3674701Y+1829949D02*
X+3674701Y+1630051D01*
X+3805353Y+1499399D01*
X+3733999Y+1499399D01*
X+3733999Y+1565210D01*
X+3585210Y+1713999D01*
X+3374790Y+1713999D01*
X+3226001Y+1565210D01*
X+3226001Y+1354790D01*
X+3374790Y+1206001D01*
X+3583401Y+1206001D01*
X+3583401Y+1205999D01*
X+3374790Y+1205999D01*
X+3300020Y+1131228D01*
X+3289949Y+1141299D01*
X+3090051Y+1141299D01*
X+3043802Y+1095050D01*
X+2936975Y+1246001D01*
X+3055210Y+1246001D01*
X+3203999Y+1394790D01*
X+3203999Y+1605210D01*
X+3153999Y+1655210D01*
X+3153999Y+1835210D01*
X+3118608Y+1870601D01*
X+3715353Y+1870601D01*
X+3674701Y+1829949D01*
G37*
G36*
X+5956801Y+1295999D02*
X+5818599Y+1295999D01*
X+5818599Y+1296001D01*
X+5956801Y+1296001D01*
X+5956801Y+1295999D01*
G37*
G36*
X+5666001Y+936790D02*
X+5814790Y+788001D01*
X+5860635Y+788001D01*
X+5756801Y+684167D01*
X+5756801Y+673999D01*
X+5452001Y+673999D01*
X+5452001Y+166001D01*
X+5502801Y+166001D01*
X+5502801Y+162559D01*
X+4925899Y+162559D01*
X+4925899Y+289428D01*
X+4890327Y+325000D01*
X+4925899Y+360572D01*
X+4925899Y+528774D01*
X+4970572Y+484101D01*
X+5149428Y+484101D01*
X+5275899Y+610572D01*
X+5275899Y+789428D01*
X+5149428Y+915899D01*
X+4970572Y+915899D01*
X+4885000Y+830327D01*
X+4799428Y+915899D01*
X+4620572Y+915899D01*
X+4510000Y+805327D01*
X+4399428Y+915899D01*
X+4220572Y+915899D01*
X+4110000Y+805327D01*
X+3999428Y+915899D01*
X+3820572Y+915899D01*
X+3795172Y+890499D01*
X+3733999Y+890499D01*
X+3733999Y+940601D01*
X+5666001Y+940601D01*
X+5666001Y+936790D01*
G37*
D10*
X+1142000Y+3650000D02*
X+1142000Y+3266000D01*
X+1208000Y+3200000D01*
D11*
X+4807000Y+3140000D02*
X+4627000Y+3320000D01*
X+4490000Y+3320000D01*
X+4180000Y+3010000D01*
X+4150000Y+3010000D01*
D10*
X+4442000Y+2600000D02*
X+4442000Y+3029000D01*
X+4553000Y+3140000D01*
D12*
X+4553000Y+4600000D02*
X+4306159Y+4353159D01*
X+3936000Y+4353159D01*
X+3936000Y+4600000D01*
D10*
X+7494000Y+420000D02*
X+7674000Y+600000D01*
X+7780000Y+600000D01*
X+7950000Y+770000D01*
X+5706000Y+420000D02*
X+5706000Y+200000D01*
X+7494000Y+200000D01*
X+7494000Y+420000D01*
X+6410000Y+3130000D02*
X+4807000Y+3140000D01*
X+6410000Y+3130000D02*
X+6217500Y+1972501D01*
X+6630000Y+1560001D01*
X+6630000Y+780000D01*
X+6620000Y+770000D01*
X+8150000Y+1230000D02*
X+7920000Y+1000000D01*
X+7752087Y+1000000D01*
X+7396000Y+1350000D01*
X+3640000Y+4100000D02*
X+1142000Y+4100000D01*
X+1142000Y+3650000D01*
D11*
X+2140000Y+554000D02*
X+2941298Y+408824D01*
X+3603386Y+397109D01*
X+3910000Y+200000D01*
X+1890000Y+1154000D02*
X+2459447Y+1154000D01*
X+2974081Y+550000D01*
X+3725385Y+550000D01*
X+3910000Y+450000D01*
X+1650000Y+1754000D02*
X+1713500Y+1760000D01*
X+2630000Y+1760000D01*
X+2630000Y+1350000D01*
X+3090000Y+700000D01*
X+3910000Y+700000D01*
D10*
X+5960000Y+420000D02*
X+5960000Y+600000D01*
X+6160000Y+800000D01*
X+6160000Y+1720000D01*
X+6110000Y+1770000D01*
X+5576000Y+1770000D01*
X+5336000Y+1530000D01*
D11*
X+5920000Y+1950000D02*
X+5670000Y+2390000D01*
X+5360000Y+2390000D01*
D10*
X+5350000Y+2600000D01*
D11*
X+5206000Y+2150000D02*
X+5250000Y+2390000D01*
D12*
X+5360000Y+2390000D01*
D10*
X+4066000Y+1220000D02*
X+4020000Y+1490000D01*
X+3480000Y+1460000D01*
X+4150000Y+3010000D02*
X+3990000Y+3010000D01*
X+3760000Y+3240000D01*
X+3520000Y+3240000D01*
X+3320000Y+3040000D01*
X+2600000Y+3040000D01*
X+2500000Y+3262000D01*
D13*
X+6410000Y+3130000D03*
X+3910000Y+200000D03*
X+3910000Y+450000D03*
X+3910000Y+700000D03*
X+4310000Y+200000D03*
X+4310000Y+450000D03*
X+4310000Y+700000D03*
X+4710000Y+700000D03*
X+4710000Y+450000D03*
X+4710000Y+200000D03*
X+5060000Y+700000D03*
D14*
X+5920000Y+1950000D03*
D10*
X+8130101Y+4794639D02*
X+8130101Y+4405361D01*
X+8405361Y+4130101D01*
X+8794639Y+4130101D01*
X+8837441Y+4172903D01*
X+8837441Y+827097D01*
X+8794639Y+869899D01*
X+8405361Y+869899D01*
X+8203999Y+668537D01*
X+8203999Y+875210D01*
X+8143288Y+935922D01*
X+8183367Y+976001D01*
X+8255210Y+976001D01*
X+8403999Y+1124790D01*
X+8403999Y+1335210D01*
X+8255210Y+1483999D01*
X+8044790Y+1483999D01*
X+7996000Y+1435209D01*
X+7925210Y+1505999D01*
X+7714790Y+1505999D01*
X+7649999Y+1441208D01*
X+7649999Y+1455210D01*
X+7501210Y+1603999D01*
X+7290790Y+1603999D01*
X+7142001Y+1455210D01*
X+7142001Y+1244790D01*
X+7191791Y+1195000D01*
X+7142001Y+1145210D01*
X+7142001Y+1023999D01*
X+7022790Y+1023999D01*
X+6874001Y+875210D01*
X+6874001Y+673999D01*
X+6873999Y+673999D01*
X+6873999Y+875210D01*
X+6833199Y+916010D01*
X+6833199Y+1644168D01*
X+6435980Y+2041387D01*
X+6440323Y+2066001D01*
X+6858999Y+2066001D01*
X+6858999Y+2573999D01*
X+6529951Y+2573999D01*
X+6609351Y+3024024D01*
X+6625899Y+3040572D01*
X+6625899Y+3219428D01*
X+6499428Y+3345899D01*
X+6320572Y+3345899D01*
X+6308970Y+3334297D01*
X+5651218Y+3338197D01*
X+4909247Y+3343080D01*
X+4896428Y+3355899D01*
X+4860507Y+3355899D01*
X+4845805Y+3370601D01*
X+5688599Y+3370601D01*
X+5688599Y+3929399D01*
X+5128647Y+3929399D01*
X+5199299Y+4000051D01*
X+5199299Y+4199949D01*
X+5057949Y+4341299D01*
X+4858051Y+4341299D01*
X+4716701Y+4199949D01*
X+4716701Y+4000051D01*
X+4787353Y+3929399D01*
X+4620647Y+3929399D01*
X+4691299Y+4000051D01*
X+4691299Y+4199949D01*
X+4557947Y+4333301D01*
X+4663470Y+4333301D01*
X+4819699Y+4489530D01*
X+4819699Y+4710470D01*
X+4692728Y+4837441D01*
X+5810272Y+4837441D01*
X+5683301Y+4710470D01*
X+5683301Y+4489530D01*
X+5839530Y+4333301D01*
X+6060470Y+4333301D01*
X+6216699Y+4489530D01*
X+6216699Y+4710470D01*
X+6089728Y+4837441D01*
X+8172903Y+4837441D01*
X+8130101Y+4794639D01*
X+7996000Y+1943209D02*
X+8044790Y+1991999D01*
X+8255210Y+1991999D01*
X+8403999Y+1843210D01*
X+8403999Y+1632790D01*
X+8255210Y+1484001D01*
X+8044790Y+1484001D01*
X+7974000Y+1554791D01*
X+7925210Y+1506001D01*
X+7714790Y+1506001D01*
X+7566001Y+1654790D01*
X+7566001Y+1865210D01*
X+7714790Y+2013999D01*
X+7925210Y+2013999D01*
X+7996000Y+1943209D01*
X+7088301Y+2209530D02*
X+7088301Y+2430470D01*
X+7244530Y+2586699D01*
X+7465470Y+2586699D01*
X+7621699Y+2430470D01*
X+7621699Y+2209530D01*
X+7465470Y+2053301D01*
X+7244530Y+2053301D01*
X+7088301Y+2209530D01*
X+6341001Y+4323999D02*
X+6848999Y+4323999D01*
X+6848999Y+3816001D01*
X+6341001Y+3816001D01*
X+6341001Y+4323999D01*
X+7078301Y+3959530D02*
X+7078301Y+4180470D01*
X+7234530Y+4336699D01*
X+7455470Y+4336699D01*
X+7611699Y+4180470D01*
X+7611699Y+3959530D01*
X+7455470Y+3803301D01*
X+7234530Y+3803301D01*
X+7078301Y+3959530D01*
X+2183401Y+4320601D02*
X+3519353Y+4320601D01*
X+3501951Y+4303199D01*
X+1057833Y+4303199D01*
X+938801Y+4184167D01*
X+938801Y+3929399D01*
X+405401Y+3929399D01*
X+405401Y+3370601D01*
X+511392Y+3370601D01*
X+446001Y+3305210D01*
X+446001Y+3094790D01*
X+594790Y+2946001D01*
X+805210Y+2946001D01*
X+953999Y+3094790D01*
X+953999Y+3166635D01*
X+954001Y+3166633D01*
X+954001Y+3094790D01*
X+1102790Y+2946001D01*
X+1313210Y+2946001D01*
X+1461999Y+3094790D01*
X+1461999Y+3305210D01*
X+1396608Y+3370601D01*
X+2249392Y+3370601D01*
X+2246001Y+3367210D01*
X+2246001Y+3156790D01*
X+2373573Y+3029218D01*
X+2439352Y+2901884D01*
X+2540051Y+2836801D01*
X+2881592Y+2836801D01*
X+2880001Y+2835210D01*
X+2880001Y+2733208D01*
X+2859210Y+2753999D01*
X+2648790Y+2753999D01*
X+2610690Y+2715899D01*
X+2369310Y+2715899D01*
X+2331210Y+2753999D01*
X+2120790Y+2753999D01*
X+1972001Y+2605210D01*
X+1972001Y+2429399D01*
X+1463999Y+2429399D01*
X+1463999Y+2605210D01*
X+1315210Y+2753999D01*
X+1104790Y+2753999D01*
X+956001Y+2605210D01*
X+956001Y+2429399D01*
X+405401Y+2429399D01*
X+405401Y+1870601D01*
X+645392Y+1870601D01*
X+634001Y+1859210D01*
X+634001Y+1648790D01*
X+655791Y+1627000D01*
X+634001Y+1605210D01*
X+634001Y+1394790D01*
X+782790Y+1246001D01*
X+874001Y+1246001D01*
X+874001Y+1048790D01*
X+895791Y+1027000D01*
X+874001Y+1005210D01*
X+874001Y+794790D01*
X+1022790Y+646001D01*
X+1124001Y+646001D01*
X+1124001Y+448790D01*
X+1145791Y+427000D01*
X+1124001Y+405210D01*
X+1124001Y+194790D01*
X+1156232Y+162559D01*
X+827097Y+162559D01*
X+869899Y+205361D01*
X+869899Y+594639D01*
X+594639Y+869899D01*
X+205361Y+869899D01*
X+162559Y+827097D01*
X+162559Y+4172903D01*
X+205361Y+4130101D01*
X+594639Y+4130101D01*
X+869899Y+4405361D01*
X+869899Y+4794639D01*
X+827097Y+4837441D01*
X+2183401Y+4837441D01*
X+2183401Y+4320601D01*
X+3906701Y+4199949D02*
X+3906701Y+4000051D01*
X+3977353Y+3929399D01*
X+3810647Y+3929399D01*
X+3881299Y+4000051D01*
X+3881299Y+4199949D01*
X+3760647Y+4320601D01*
X+4027353Y+4320601D01*
X+3906701Y+4199949D01*
X+5565782Y+2931803D02*
X+6161742Y+2927881D01*
X+6111999Y+2611827D01*
X+6111999Y+2705210D01*
X+5963210Y+2853999D01*
X+5752790Y+2853999D01*
X+5604001Y+2705210D01*
X+5604001Y+2494790D01*
X+5669392Y+2429399D01*
X+5538608Y+2429399D01*
X+5603999Y+2494790D01*
X+5603999Y+2705210D01*
X+5455210Y+2853999D01*
X+5244790Y+2853999D01*
X+5150000Y+2759209D01*
X+5055210Y+2853999D01*
X+4844790Y+2853999D01*
X+4696001Y+2705210D01*
X+4696001Y+2494790D01*
X+4761392Y+2429399D01*
X+4630608Y+2429399D01*
X+4695999Y+2494790D01*
X+4695999Y+2705210D01*
X+4645199Y+2756010D01*
X+4645199Y+2797101D01*
X+4769428Y+2797101D01*
X+4895899Y+2923572D01*
X+4895899Y+2924101D01*
X+4896428Y+2924101D01*
X+4908030Y+2935703D01*
X+5565782Y+2931803D01*
X+3536790Y+2756001D02*
X+3747210Y+2756001D01*
X+3851922Y+2860712D01*
X+3905833Y+2806801D01*
X+3908701Y+2806801D01*
X+3908701Y+2630051D01*
X+3921752Y+2617000D01*
X+3904701Y+2599949D01*
X+3904701Y+2429399D01*
X+3371299Y+2429399D01*
X+3371299Y+2599949D01*
X+3367228Y+2604020D01*
X+3387999Y+2624790D01*
X+3387999Y+2835210D01*
X+3386408Y+2836801D01*
X+3404167Y+2836801D01*
X+3430078Y+2862712D01*
X+3536790Y+2756001D01*
X+6011486Y+1973199D02*
X+5989850Y+1973199D01*
X+5989850Y+1978933D01*
X+5948933Y+2019850D01*
X+5891067Y+2019850D01*
X+5850150Y+1978933D01*
X+5850150Y+1973199D01*
X+5688599Y+1973199D01*
X+5688599Y+2410192D01*
X+5752790Y+2346001D01*
X+5963210Y+2346001D01*
X+6090138Y+2472929D01*
X+6011486Y+1973199D01*
X+5666001Y+1499399D02*
X+5592765Y+1499399D01*
X+5660167Y+1566801D01*
X+5666001Y+1566801D01*
X+5666001Y+1499399D01*
X+4078701Y+1499399D02*
X+4026647Y+1499399D01*
X+4078701Y+1551453D01*
X+4078701Y+1499399D01*
X+3674701Y+1829949D02*
X+3674701Y+1630051D01*
X+3805353Y+1499399D01*
X+3733999Y+1499399D01*
X+3733999Y+1565210D01*
X+3585210Y+1713999D01*
X+3374790Y+1713999D01*
X+3226001Y+1565210D01*
X+3226001Y+1354790D01*
X+3374790Y+1206001D01*
X+3583401Y+1206001D01*
X+3583401Y+1205999D01*
X+3374790Y+1205999D01*
X+3300020Y+1131228D01*
X+3289949Y+1141299D01*
X+3090051Y+1141299D01*
X+3043802Y+1095050D01*
X+2936975Y+1246001D01*
X+3055210Y+1246001D01*
X+3203999Y+1394790D01*
X+3203999Y+1605210D01*
X+3153999Y+1655210D01*
X+3153999Y+1835210D01*
X+3118608Y+1870601D01*
X+3715353Y+1870601D01*
X+3674701Y+1829949D01*
X+5956801Y+1295999D02*
X+5818599Y+1295999D01*
X+5818599Y+1296001D01*
X+5956801Y+1296001D01*
X+5956801Y+1295999D01*
X+5666001Y+936790D02*
X+5814790Y+788001D01*
X+5860635Y+788001D01*
X+5756801Y+684167D01*
X+5756801Y+673999D01*
X+5452001Y+673999D01*
X+5452001Y+166001D01*
X+5502801Y+166001D01*
X+5502801Y+162559D01*
X+4925899Y+162559D01*
X+4925899Y+289428D01*
X+4890327Y+325000D01*
X+4925899Y+360572D01*
X+4925899Y+528774D01*
X+4970572Y+484101D01*
X+5149428Y+484101D01*
X+5275899Y+610572D01*
X+5275899Y+789428D01*
X+5149428Y+915899D01*
X+4970572Y+915899D01*
X+4885000Y+830327D01*
X+4799428Y+915899D01*
X+4620572Y+915899D01*
X+4510000Y+805327D01*
X+4399428Y+915899D01*
X+4220572Y+915899D01*
X+4110000Y+805327D01*
X+3999428Y+915899D01*
X+3820572Y+915899D01*
X+3795172Y+890499D01*
X+3733999Y+890499D01*
X+3733999Y+940601D01*
X+5666001Y+940601D01*
X+5666001Y+936790D01*
X+888000Y+3929399D02*
X+888000Y+3650000D01*
X+405401Y+3650000D02*
X+634000Y+3650000D01*
X+634000Y+3929399D02*
X+634000Y+3650000D01*
X+3174000Y+1870601D02*
X+3174000Y+2150000D01*
X+3936000Y+4320601D02*
X+3936000Y+4600000D01*
X+5590000Y+940601D02*
X+5590000Y+1220000D01*
X+5336000Y+940601D02*
X+5336000Y+1220000D01*
X+4066000Y+1499399D02*
X+4066000Y+1220000D01*
X+4066000Y+940601D02*
X+4066000Y+1220000D01*
X+7142001Y+1040000D02*
X+7396000Y+1040000D01*
X+7566001Y+1760000D02*
X+7820000Y+1760000D01*
X+7820000Y+1506001D02*
X+7820000Y+1760000D01*
X+7820000Y+2013999D02*
X+7820000Y+1760000D01*
X+5666001Y+1550000D02*
X+5920000Y+1550000D01*
X+5920000Y+1296001D02*
X+5920000Y+1550000D01*
X+7088301Y+2320000D02*
X+7355000Y+2320000D01*
X+7621699Y+2320000D02*
X+7355000Y+2320000D01*
X+7355000Y+2053301D02*
X+7355000Y+2320000D01*
X+7355000Y+2586699D02*
X+7355000Y+2320000D01*
X+7078301Y+4070000D02*
X+7345000Y+4070000D01*
X+7611699Y+4070000D02*
X+7345000Y+4070000D01*
X+7345000Y+3803301D02*
X+7345000Y+4070000D01*
X+7345000Y+4336699D02*
X+7345000Y+4070000D01*
X+4819699Y+4600000D02*
X+4553000Y+4600000D01*
X+8403999Y+1738000D02*
X+8150000Y+1738000D01*
X+8150000Y+1484001D02*
X+8150000Y+1738000D01*
X+8150000Y+1991999D02*
X+8150000Y+1738000D01*
X+6874001Y+770000D02*
X+7128000Y+770000D01*
X+7128000Y+1023999D02*
X+7128000Y+770000D01*
X+5603999Y+2600000D02*
X+5350000Y+2600000D01*
X+5350000Y+2853999D02*
X+5350000Y+2600000D01*
X+446001Y+3200000D02*
X+700000Y+3200000D01*
X+700000Y+2946001D02*
X+700000Y+3200000D01*
X+2754000Y+2753999D02*
X+2754000Y+2500000D01*
X+3387999Y+2730000D02*
X+3134000Y+2730000D01*
X+3371299Y+2500000D02*
X+3130000Y+2500000D01*
X+4696001Y+2600000D02*
X+4950000Y+2600000D01*
X+4950000Y+2853999D02*
X+4950000Y+2600000D01*
X+3642000Y+2756001D02*
X+3642000Y+3010000D01*
X+3226001Y+1460000D02*
X+3480000Y+1460000D01*
X+3480000Y+1206001D02*
X+3480000Y+1460000D01*
X+3480000Y+1713999D02*
X+3480000Y+1460000D01*
X+3906701Y+4100000D02*
X+4148000Y+4100000D01*
X+4691299Y+4100000D02*
X+4450000Y+4100000D01*
D15*
X+5460000Y+3650000D03*
X+5206000Y+3650000D03*
X+4952000Y+3650000D03*
X+4698000Y+3650000D03*
X+4444000Y+3650000D03*
X+4190000Y+3650000D03*
X+3936000Y+3650000D03*
X+3682000Y+3650000D03*
X+3428000Y+3650000D03*
X+3174000Y+3650000D03*
X+2920000Y+3650000D03*
X+2666000Y+3650000D03*
X+2412000Y+3650000D03*
X+2158000Y+3650000D03*
X+1904000Y+3650000D03*
X+1650000Y+3650000D03*
X+1396000Y+3650000D03*
X+1142000Y+3650000D03*
X+888000Y+3650000D03*
X+634000Y+3650000D03*
X+5460000Y+2150000D03*
X+5206000Y+2150000D03*
X+4952000Y+2150000D03*
X+4698000Y+2150000D03*
X+4444000Y+2150000D03*
X+4190000Y+2150000D03*
X+3936000Y+2150000D03*
X+3682000Y+2150000D03*
X+3428000Y+2150000D03*
X+3174000Y+2150000D03*
X+2920000Y+2150000D03*
X+2666000Y+2150000D03*
X+2412000Y+2150000D03*
X+2158000Y+2150000D03*
X+1904000Y+2150000D03*
X+1650000Y+2150000D03*
X+1396000Y+2150000D03*
X+1142000Y+2150000D03*
X+888000Y+2150000D03*
X+634000Y+2150000D03*
X+4190000Y+4600000D03*
X+3936000Y+4600000D03*
X+3682000Y+4600000D03*
X+3428000Y+4600000D03*
X+3174000Y+4600000D03*
X+2920000Y+4600000D03*
X+2666000Y+4600000D03*
X+2412000Y+4600000D03*
X+5590000Y+1220000D03*
X+5336000Y+1220000D03*
X+5082000Y+1220000D03*
X+4828000Y+1220000D03*
X+4574000Y+1220000D03*
X+4320000Y+1220000D03*
X+4066000Y+1220000D03*
X+3812000Y+1220000D03*
D16*
X+7494000Y+420000D03*
X+7240000Y+420000D03*
X+6986000Y+420000D03*
X+6214000Y+420000D03*
X+5960000Y+420000D03*
X+5706000Y+420000D03*
D17*
X+6380000Y+1040000D03*
X+7396000Y+1040000D03*
X+7396000Y+1350000D03*
X+6380000Y+1350000D03*
X+1210000Y+2500000D03*
X+2226000Y+2500000D03*
X+7820000Y+1760000D03*
X+7820000Y+1252000D03*
X+7950000Y+770000D03*
X+7442000Y+770000D03*
X+5920000Y+1550000D03*
X+5920000Y+1042000D03*
D16*
X+6605000Y+2320000D03*
D18*
X+7355000Y+2320000D03*
D16*
X+6595000Y+4070000D03*
D18*
X+7345000Y+4070000D03*
X+4553000Y+4600000D03*
X+5950000Y+4600000D03*
D17*
X+8150000Y+1230000D03*
X+8150000Y+1738000D03*
X+6620000Y+770000D03*
X+7128000Y+770000D03*
X+5350000Y+2600000D03*
X+5858000Y+2600000D03*
X+700000Y+3200000D03*
X+1208000Y+3200000D03*
D19*
X+2500000Y+2500000D03*
D17*
X+2754000Y+2500000D03*
X+2754000Y+3262000D03*
X+2500000Y+3262000D03*
X+4150000Y+3280000D03*
X+3134000Y+3280000D03*
X+3134000Y+2730000D03*
D70*
X+4150000Y+2730000D03*
D13*
X+4553000Y+3140000D03*
X+4680000Y+3013000D03*
X+4807000Y+3140000D03*
D70*
X+3130000Y+2500000D03*
X+4146000Y+2500000D03*
D17*
X+4950000Y+2600000D03*
X+4442000Y+2600000D03*
X+4150000Y+3010000D03*
X+3642000Y+3010000D03*
X+3480000Y+952000D03*
X+3480000Y+1460000D03*
D70*
X+3640000Y+4100000D03*
X+4148000Y+4100000D03*
D71*
X+1650000Y+1500000D03*
D17*
X+1650000Y+1754000D03*
X+888000Y+1754000D03*
X+888000Y+1500000D03*
D71*
X+1890000Y+900000D03*
D17*
X+1890000Y+1154000D03*
X+1128000Y+1154000D03*
X+1128000Y+900000D03*
D71*
X+2140000Y+300000D03*
D17*
X+2140000Y+554000D03*
X+1378000Y+554000D03*
X+1378000Y+300000D03*
X+2950000Y+1500000D03*
X+1934000Y+1500000D03*
D70*
X+3190000Y+900000D03*
D17*
X+2174000Y+900000D03*
D70*
X+3440000Y+220000D03*
D17*
X+2424000Y+220000D03*
D70*
X+3916000Y+1730000D03*
D17*
X+2900000Y+1730000D03*
D70*
X+5336000Y+1530000D03*
X+4320000Y+1530000D03*
X+5340000Y+1830000D03*
X+4324000Y+1830000D03*
D20*
X+400000Y+400000D03*
X+400000Y+4600000D03*
X+8600000Y+4600000D03*
X+8600000Y+400000D03*
D70*
X+4450000Y+4100000D03*
X+4958000Y+4100000D03*
D21*
X+0Y+0D02*
X+9000000Y+0D01*
X+9000000Y+5000000D01*
X+0Y+5000000D01*
X+0Y+0D01*
M02*
